<?xml version="1.0" standalone="no"?>
<!DOCTYPE svg PUBLIC "-//W3C//DTD SVG 20010904//EN"
 "http://www.w3.org/TR/2001/REC-SVG-20010904/DTD/svg10.dtd">
<svg version="1.0" xmlns="http://www.w3.org/2000/svg"
 width="720.000000pt" height="720.000000pt" viewBox="0 0 720.000000 720.000000"
 preserveAspectRatio="xMidYMid meet">
<metadata>
Created by potrace 1.11, written by Peter Selinger 2001-2013
</metadata>
<g transform="translate(0.000000,720.000000) scale(0.100000,-0.100000)"
fill="#000000" stroke="none">
<path d="M2643 7073 c-13 -2 -23 -8 -23 -12 0 -9 -51 -35 -63 -32 -5 1 -5 -4
-2 -10 4 -6 19 -9 35 -6 16 4 36 0 49 -9 19 -14 21 -14 21 2 0 13 5 11 20 -9
27 -34 26 -37 -16 -37 -22 0 -33 -4 -29 -10 4 -6 15 -8 24 -5 10 3 23 -1 30
-8 9 -12 5 -16 -20 -21 -18 -3 -37 -2 -43 3 -17 13 -66 20 -66 9 0 -5 -14 -7
-32 -3 -32 6 -32 5 -13 -10 34 -28 50 -34 66 -24 21 13 32 11 17 -4 -19 -19
-104 -14 -127 7 -12 11 -21 13 -25 7 -4 -6 -48 -9 -104 -9 -89 1 -134 -3 -217
-18 -41 -8 -95 -27 -95 -34 0 -3 23 -15 51 -27 53 -23 59 -44 11 -38 -15 2
-29 4 -32 5 -3 1 -9 3 -15 4 -5 1 -17 5 -25 8 -19 8 -128 19 -200 19 -97 1
-176 -3 -158 -8 10 -3 15 -10 11 -20 -5 -13 -3 -13 15 -4 25 13 116 15 108 2
-4 -5 0 -11 6 -14 7 -2 0 -8 -15 -12 -17 -4 -26 -13 -23 -20 3 -9 -17 -13 -77
-15 -45 -1 -100 -3 -123 -4 -22 0 -48 -7 -57 -14 -8 -7 -17 -9 -20 -5 -9 14
-92 10 -90 -4 2 -8 -7 -13 -21 -13 -13 0 -39 -14 -57 -32 -32 -29 -32 -31 -9
-24 32 9 100 18 80 11 -36 -14 -100 -50 -100 -57 0 -5 -15 -8 -33 -8 -62 0
-152 -22 -214 -52 -64 -31 -85 -54 -35 -38 82 26 156 14 129 -20 -7 -9 -28
-24 -47 -33 -46 -22 -70 -41 -70 -56 0 -6 -7 -14 -16 -18 -8 -3 -13 -12 -10
-19 3 -8 0 -11 -9 -8 -21 9 -115 -47 -115 -68 0 -5 4 -6 10 -3 5 3 10 3 10 -2
0 -4 -16 -19 -35 -33 -19 -14 -35 -31 -35 -37 0 -7 -4 -13 -10 -13 -5 0 -10
-7 -10 -15 0 -8 -4 -15 -10 -15 -5 0 -10 -17 -11 -37 0 -21 -3 -32 -6 -25 -2
6 -9 12 -14 12 -6 0 -7 -4 -4 -10 3 -5 0 -10 -7 -10 -7 0 -5 -5 6 -11 14 -9
15 -13 6 -19 -9 -6 -10 -17 -2 -46 8 -33 10 -35 11 -12 1 21 5 25 20 21 13 -3
21 2 26 16 4 12 12 18 21 14 7 -3 14 0 14 6 0 6 7 11 15 11 16 0 21 -35 6 -44
-4 -3 -11 -22 -14 -43 -8 -49 11 -61 40 -25 34 43 39 17 8 -47 -18 -38 -25
-66 -21 -78 7 -17 8 -17 22 1 24 34 17 -5 -11 -58 -14 -27 -25 -64 -25 -86 0
-21 -4 -42 -10 -45 -5 -3 -10 -1 -10 6 0 7 -3 10 -6 6 -3 -3 -3 -41 2 -84 4
-52 9 -71 14 -58 7 19 8 18 14 -5 4 -16 1 -37 -8 -55 -19 -36 -20 -49 -3 -39
6 4 4 -2 -6 -13 -25 -29 -21 -129 5 -127 10 1 15 -3 11 -9 -3 -6 -8 -22 -9
-36 -2 -14 -10 -70 -18 -124 -9 -56 -12 -105 -8 -114 6 -9 0 -31 -15 -60 -25
-51 -30 -78 -11 -67 8 5 9 2 4 -12 -19 -45 -26 -98 -20 -152 3 -31 6 -69 7
-84 1 -16 6 -28 10 -28 5 0 6 -8 3 -18 -4 -10 -1 -47 5 -83 6 -35 12 -82 13
-104 1 -22 8 -58 14 -81 8 -26 9 -57 4 -86 -5 -24 -7 -53 -4 -64 7 -32 14
-143 16 -256 1 -81 4 -104 13 -96 6 5 15 23 18 39 5 21 12 29 23 27 18 -3 24
-35 35 -185 6 -71 5 -73 -18 -73 -16 0 -30 -11 -45 -37 -31 -53 -21 -132 21
-168 17 -14 36 -25 43 -25 7 0 21 -9 31 -20 21 -23 45 -26 45 -7 0 8 -9 22
-20 32 -24 22 -25 57 -4 116 15 44 17 115 3 134 -4 6 -3 46 2 90 5 44 10 92
10 108 0 15 4 27 8 27 11 0 35 132 55 305 9 72 21 164 26 205 6 41 13 135 15
209 3 74 9 139 12 145 9 14 9 49 -1 64 -4 6 -5 16 -2 21 4 5 0 12 -6 15 -9 3
-3 12 15 27 23 17 27 27 22 49 -4 18 1 44 13 72 10 24 29 76 43 116 13 39 27
72 31 72 5 0 8 11 8 24 0 14 4 27 9 30 4 3 14 33 21 66 7 33 17 63 21 66 5 3
9 15 9 28 0 13 8 31 19 40 10 9 24 37 31 61 8 28 20 47 32 51 11 3 17 12 14
20 -4 10 3 14 24 14 16 0 32 5 35 10 3 6 11 10 16 10 13 0 1 -42 -15 -52 -8
-5 -7 -8 2 -8 8 0 11 -11 8 -32 l-5 -33 14 30 c17 35 19 24 5 -25 -16 -61 -37
-342 -30 -400 6 -45 8 -49 10 -20 2 29 5 23 17 -35 29 -138 61 -203 84 -172 3
4 16 -24 28 -63 37 -110 47 -96 22 29 -6 29 -10 68 -10 85 2 27 2 27 6 6 2
-14 7 -32 10 -40 4 -8 7 -18 7 -22 1 -3 4 -10 9 -14 10 -10 9 13 -2 34 -14 29
-21 93 -9 86 7 -5 9 2 4 22 -25 113 -25 213 2 299 13 42 99 212 112 220 14 9
13 5 -19 -61 -27 -56 -56 -145 -78 -242 -12 -47 1 -195 19 -222 6 -11 8 -5 4
20 -18 128 -18 151 4 240 13 53 26 87 32 84 6 -4 7 2 3 16 -4 14 -3 20 3 16 5
-3 17 16 27 42 23 60 94 169 131 202 16 14 23 18 16 9 -8 -11 -10 -24 -4 -40
5 -13 7 -30 4 -38 -3 -8 0 -11 7 -7 14 9 14 1 1 -24 -7 -13 -6 -19 5 -24 8 -3
17 -1 20 5 4 5 11 7 16 3 6 -4 6 -11 -2 -20 -6 -8 -9 -15 -5 -15 3 -1 9 -2 14
-3 16 -3 32 -18 27 -26 -3 -4 2 -13 10 -20 8 -7 15 -19 15 -27 0 -10 6 -13 16
-9 9 3 20 6 25 6 11 0 8 59 -3 66 -17 11 -8 25 10 15 13 -7 23 -4 40 11 l22
21 0 -23 c0 -18 3 -21 11 -13 8 8 20 9 36 2 23 -8 25 -7 20 11 -4 15 0 20 13
20 12 0 22 12 31 38 25 77 73 152 98 152 16 0 14 -10 -10 -55 -19 -35 -79
-208 -79 -227 0 -16 37 30 48 58 30 80 66 162 83 185 15 21 23 24 56 21 21 -3
32 -7 25 -9 -10 -4 -10 -8 -1 -19 20 -24 37 -17 32 14 -4 22 -2 24 7 10 6 -10
17 -15 26 -11 12 5 12 7 -3 19 -15 11 -15 13 -2 14 8 0 19 -4 25 -8 5 -4 38
-6 72 -4 l64 4 -6 33 c-6 32 -5 34 21 32 24 -2 29 -7 33 -39 l5 -37 25 19 c25
19 25 18 57 -6 26 -20 33 -22 33 -10 0 27 18 17 23 -11 l4 -28 2 26 c1 27 31
64 31 39 0 -9 11 -11 43 -6 23 4 51 8 62 10 37 4 70 18 92 39 13 11 36 20 52
20 17 0 32 6 35 12 4 11 42 18 86 16 42 -2 170 -20 180 -26 14 -8 0 -34 -63
-115 l-51 -65 48 45 c26 25 60 65 76 89 l29 44 11 -28 c6 -15 13 -25 16 -22 4
3 13 0 21 -8 8 -8 25 -15 38 -15 13 0 26 -4 29 -9 3 -5 22 -12 41 -15 19 -4
35 -11 35 -15 0 -18 44 -20 56 -3 12 16 14 15 28 -4 19 -27 66 -40 78 -22 6 9
10 10 16 2 4 -6 22 -15 40 -19 17 -3 32 -10 32 -13 0 -4 14 -13 30 -20 17 -8
30 -20 30 -27 0 -7 3 -15 8 -17 4 -1 15 -16 24 -33 9 -16 26 -31 38 -33 13 -2
20 -10 18 -20 -1 -9 6 -29 15 -43 26 -40 37 -86 38 -169 l2 -75 7 67 c7 72 16
93 25 62 4 -10 10 -26 15 -35 4 -9 14 -50 21 -92 13 -75 12 -76 -14 -116 -35
-53 -34 -57 6 -27 37 29 35 31 43 -61 3 -35 9 -63 13 -63 4 0 6 -32 5 -70 -2
-56 1 -69 11 -60 17 14 26 -81 20 -225 -2 -60 -7 -166 -9 -235 -3 -69 -6 -129
-6 -134 0 -5 -6 -3 -14 3 -11 9 -15 9 -20 -1 -3 -7 -3 -2 0 11 4 14 2 21 -4
17 -16 -9 -40 27 -32 49 6 17 7 16 14 -8 4 -16 11 -25 17 -21 8 4 8 9 -1 14
-6 4 -11 10 -11 14 3 22 -1 27 -19 21 -13 -4 -20 -2 -20 7 0 10 -3 9 -10 -2
-9 -13 -12 -13 -23 1 -6 8 -20 18 -29 22 -10 3 -18 11 -18 17 0 6 -4 8 -10 5
-5 -3 -10 -1 -10 5 0 6 -4 9 -8 6 -5 -3 -9 0 -9 7 0 7 -8 25 -18 41 -16 24
-20 26 -25 12 -5 -16 -8 -15 -24 3 -11 12 -24 21 -29 21 -16 0 32 -42 51 -44
9 -2 17 -9 17 -17 0 -8 4 -19 8 -26 12 -19 -4 -23 -53 -12 -8 2 -23 13 -32 24
-23 26 -27 30 -64 59 -28 23 -33 24 -53 10 -12 -9 -30 -13 -44 -9 -17 5 -19 4
-7 -4 13 -9 13 -11 -2 -11 -10 0 -18 -4 -18 -9 0 -5 -12 -7 -27 -5 -54 9 -238
11 -258 3 -11 -4 -14 -8 -6 -8 8 -1 12 -3 10 -5 -2 -2 -24 -1 -49 4 -29 5 -47
5 -51 -2 -4 -7 -18 -6 -42 2 -39 15 -83 6 -57 -10 13 -8 12 -10 -3 -10 -10 0
-20 -7 -23 -15 -4 -8 -10 -15 -15 -15 -14 0 -11 28 4 33 6 3 2 6 -11 6 -13 1
-20 -3 -17 -9 3 -5 -2 -10 -12 -10 -11 0 -23 -4 -28 -9 -6 -4 -32 -14 -59 -21
-39 -11 -45 -15 -30 -21 18 -7 18 -8 -1 -9 -11 -1 -14 -4 -7 -7 17 -7 5 -23
-19 -23 -10 0 -19 -4 -19 -10 0 -5 7 -10 15 -10 8 0 15 -5 15 -11 0 -6 -9 -9
-20 -6 -25 6 -38 -12 -19 -27 8 -6 14 -21 15 -33 1 -27 -2 -28 -21 -9 -10 10
-11 16 -2 25 6 6 7 11 1 11 -5 0 -15 -5 -22 -12 -9 -9 -7 -14 6 -24 14 -11 15
-15 3 -23 -8 -5 -9 -11 -3 -15 7 -4 6 -23 -3 -56 -8 -29 -9 -52 -4 -56 5 -3 9
-23 9 -44 0 -22 8 -54 18 -72 10 -18 22 -45 26 -61 7 -28 45 -74 58 -70 5 2 8
-3 8 -11 0 -19 42 -31 118 -35 25 -1 32 -5 30 -17 -2 -10 3 -19 10 -21 6 -3
12 2 12 11 0 16 30 22 43 10 3 -4 21 -8 39 -9 18 -1 43 -5 56 -9 14 -5 22 -3
22 4 0 6 -3 9 -7 7 -5 -3 -14 1 -21 9 -10 11 -7 13 19 7 21 -4 34 -1 39 7 7
11 18 11 60 -3 29 -9 61 -17 71 -17 27 0 24 20 -3 22 -37 2 -42 3 -74 21 -17
9 -52 21 -77 27 -59 15 -68 36 -19 42 44 6 92 -5 74 -16 -7 -4 -12 -12 -12
-17 0 -6 5 -7 10 -4 6 3 10 0 11 -7 0 -7 4 -3 9 10 6 13 6 32 0 47 -9 25 2 36
15 15 3 -6 18 -7 32 -4 17 5 24 3 19 -4 -4 -6 1 -8 13 -5 10 3 22 0 25 -6 10
-15 26 -14 26 2 0 16 112 19 123 3 5 -7 9 -8 15 -1 4 6 18 11 32 11 41 2 90
10 97 17 3 4 12 2 19 -4 9 -7 19 -7 35 1 17 10 20 9 14 -1 -5 -8 -4 -10 4 -5
7 4 28 0 47 -9 38 -18 49 -15 57 16 7 26 -29 65 -67 75 -14 3 -26 10 -26 15 0
5 -17 25 -37 44 -20 19 -32 35 -27 35 6 0 25 -13 42 -30 18 -16 36 -30 42 -30
5 0 15 -9 22 -20 13 -21 58 -28 58 -9 0 17 -71 82 -117 107 -48 26 -170 67
-230 77 -24 4 -45 10 -48 15 -2 4 -30 8 -62 9 -31 0 -61 5 -67 11 -5 5 -16 10
-24 10 -7 0 -20 7 -28 15 -11 11 -21 12 -33 5 -10 -5 -31 -6 -46 -2 l-29 8 30
12 c16 6 47 12 69 14 22 2 43 7 47 12 3 5 53 9 110 9 59 -1 94 2 83 7 -13 5 8
9 60 12 51 2 87 0 101 -8 33 -19 141 -23 129 -4 -8 13 11 13 36 -1 11 -5 16
-15 13 -21 -4 -7 -3 -8 4 -4 6 4 9 13 5 21 -3 8 -1 15 5 15 5 0 13 -7 16 -16
3 -8 10 -12 16 -9 6 3 7 -1 4 -9 -4 -11 0 -16 11 -16 9 0 13 5 10 10 -3 6 -1
10 4 10 6 0 11 -4 11 -10 0 -5 10 -18 21 -29 12 -11 19 -27 16 -35 -3 -8 -1
-17 6 -19 9 -3 9 -7 0 -19 -14 -17 -8 -29 12 -22 20 8 33 -46 45 -186 6 -69
14 -141 19 -160 l9 -35 1 42 c1 23 6 45 12 49 6 3 9 15 6 25 -3 11 -2 19 3 19
4 0 13 41 21 91 7 51 18 97 24 103 7 6 14 27 18 46 28 165 40 225 48 239 9 16
32 118 51 226 6 33 16 63 21 67 14 9 27 111 16 123 -11 11 -12 85 -1 84 4 -1
14 -1 22 0 12 1 12 3 -2 11 -15 9 -17 30 -15 174 0 91 5 162 9 160 4 -3 3 7
-2 21 -6 15 -10 37 -10 50 0 12 -7 25 -15 29 -9 3 -15 18 -14 38 1 31 1 32 9
8 4 -14 8 -21 9 -16 1 5 8 2 17 -5 14 -12 16 -11 12 6 -2 11 -10 19 -16 17 -7
-1 -12 9 -12 24 0 14 -5 34 -11 45 -6 11 -9 25 -6 32 2 7 16 -16 32 -51 15
-34 29 -61 31 -59 6 6 -48 143 -63 160 -9 9 -14 20 -10 23 7 7 68 -76 98 -133
12 -24 26 -43 30 -43 5 0 5 -7 2 -17 -5 -12 -3 -14 7 -8 10 6 12 3 8 -13 -4
-14 -2 -20 4 -16 6 4 8 -1 5 -12 -3 -11 -2 -37 3 -59 5 -28 8 -32 9 -15 1 20
3 22 11 10 16 -24 12 20 -5 71 -34 96 -89 206 -134 266 -20 26 -46 63 -56 81
-11 17 -23 32 -28 32 -4 0 -6 4 -3 9 6 8 -89 103 -153 152 -25 19 -39 43 -57
95 -27 81 -28 82 -12 66 20 -20 28 -14 28 20 0 43 -31 110 -48 103 -7 -2 -10
-1 -7 5 7 12 -20 26 -67 35 -34 7 -62 35 -35 35 7 1 3 6 -9 13 -12 7 -19 18
-17 25 3 6 -3 12 -11 12 -9 0 -19 7 -22 15 -4 8 -12 15 -20 15 -8 0 -14 4 -14
9 0 16 -49 61 -67 61 -13 0 -14 3 -5 12 7 7 12 19 12 28 0 13 -2 13 -10 0 -7
-11 -11 -8 -20 15 -17 44 -68 77 -55 35 8 -24 -10 -27 -19 -3 -5 11 1 23 15
34 14 11 18 18 10 23 -6 4 -11 1 -11 -6 0 -27 -33 22 -39 59 -5 29 -11 39 -29
41 -12 2 -22 7 -22 12 0 5 7 7 15 4 15 -6 22 11 8 18 -5 2 -17 18 -27 37 -10
19 -14 31 -7 27 6 -4 11 -2 11 3 0 6 -7 11 -16 11 -8 0 -12 4 -9 10 3 5 0 7
-8 4 -16 -6 -39 19 -36 38 2 7 -2 23 -9 35 -10 19 -17 21 -37 13 -20 -8 -27
-6 -35 11 -6 11 -16 19 -22 17 -6 -2 -24 8 -40 22 -24 21 -26 27 -14 36 12 9
12 12 -5 22 -10 7 -19 22 -20 35 l0 22 -11 -22 c-14 -28 -20 -29 -43 -3 -13
15 -14 20 -5 20 11 0 11 3 2 12 -10 10 -15 10 -21 -1 -7 -11 -15 -10 -40 8
-17 12 -31 27 -31 32 0 5 -13 9 -30 9 -21 0 -28 4 -24 14 3 8 -4 16 -18 19
-13 4 -35 18 -50 32 -16 14 -28 21 -28 15 0 -5 -5 -10 -10 -10 -6 0 -10 7 -8
16 2 12 -10 22 -39 32 -45 17 -53 15 -57 -15 -4 -24 -40 -23 -50 2 -4 10 1 14
16 12 31 -3 34 21 3 33 -39 15 -203 38 -262 36 -34 -1 -54 3 -58 11 -4 13 -72
16 -122 6z m280 -58 c20 -8 38 -19 42 -24 3 -6 12 -8 19 -5 14 5 51 -54 41
-64 -3 -3 -5 0 -5 6 0 7 -7 12 -15 12 -8 0 -15 4 -15 8 0 5 -22 21 -50 36 -27
15 -52 31 -55 36 -8 13 -4 13 38 -5z m-176 -11 c3 -8 2 -21 -1 -30 -6 -15 -9
-14 -31 6 -13 13 -23 26 -20 29 7 13 46 9 52 -5z m110 -9 c53 -17 101 -42 121
-62 11 -11 7 -13 -22 -13 -20 0 -36 3 -36 8 0 4 -15 8 -32 9 -113 6 -140 18
-125 57 8 20 33 20 94 1z m334 -30 c3 2 5 -5 5 -15 0 -25 -4 -25 -40 -1 -25
17 -26 20 -10 23 11 3 24 1 30 -4 6 -4 13 -6 15 -3z m39 -55 c0 -13 -11 -13
-30 0 -12 8 -11 10 8 10 12 0 22 -4 22 -10z m70 -26 c0 -8 -5 -14 -11 -14 -6
0 -17 6 -24 14 -12 11 -10 14 11 14 14 0 24 -6 24 -14z m-751 -150 c10 -9 -65
-3 -78 5 -10 6 1 8 30 4 24 -3 46 -7 48 -9z m-649 2 c0 -3 -4 -8 -10 -11 -5
-3 -10 -1 -10 4 0 6 5 11 10 11 6 0 10 -2 10 -4z m597 -31 c0 -9 -10 -15 -23
-15 -12 0 -29 -3 -38 -6 -9 -3 -16 -1 -16 5 0 6 11 11 24 11 14 0 28 5 31 10
9 15 22 12 22 -5z m-1012 -60 c-21 -17 -37 -15 -43 3 -2 8 8 12 30 12 31 -1
32 -1 13 -15z m2209 -14 c4 -5 3 -17 0 -26 -6 -15 -8 -14 -25 1 -11 9 -19 21
-19 26 0 11 37 10 44 -1z m-417 -90 c16 -23 9 -25 -21 -6 -14 9 -30 14 -35 10
-7 -3 -8 0 -5 10 8 19 43 11 61 -14z m-1967 5 c0 -2 -7 -6 -15 -10 -8 -3 -15
-1 -15 4 0 6 7 10 15 10 8 0 15 -2 15 -4z m50 0 c0 -11 -19 -15 -25 -6 -3 5 1
10 9 10 9 0 16 -2 16 -4z m-138 -32 c-13 -9 -31 -13 -43 -9 -29 9 -6 25 36 25
l29 0 -22 -16z m2108 -9 c14 -16 10 -18 -14 -9 -9 3 -16 10 -16 15 0 14 16 11
30 -6z m440 -25 c0 -5 -8 -10 -17 -10 -15 0 -16 2 -3 10 19 12 20 12 20 0z
m-359 -9 c-11 -7 -10 -11 5 -20 11 -6 14 -11 6 -11 -21 0 -45 27 -29 33 20 9
33 7 18 -2z m103 -13 c-3 -4 5 -9 18 -9 l23 -2 -23 -4 c-12 -2 -20 -9 -16 -14
3 -6 -12 -1 -35 10 -23 12 -41 23 -41 24 0 1 18 3 40 3 21 1 37 -3 34 -8z m94
-47 c11 -6 10 -10 -4 -15 -9 -3 -19 -4 -22 -1 -3 3 1 5 9 5 11 0 11 2 -1 10
-8 5 -10 10 -5 10 6 0 16 -4 23 -9z m127 -72 c11 -17 -1 -21 -15 -4 -8 9 -8
15 -2 15 6 0 14 -5 17 -11z m-2780 -49 c-3 -5 -10 -10 -16 -10 -5 0 -9 5 -9
10 0 6 7 10 16 10 8 0 12 -4 9 -10z m2955 -40 c0 -5 -5 -10 -11 -10 -5 0 -7 5
-4 10 3 6 8 10 11 10 2 0 4 -4 4 -10z m-1390 -65 c-10 -12 -9 -15 8 -15 11 0
33 -3 49 -6 20 -4 35 -1 46 10 20 20 28 20 21 1 -4 -8 -12 -15 -19 -15 -7 0
-18 -6 -24 -14 -9 -11 -19 -12 -44 -4 -29 9 -46 13 -97 18 -8 1 -3 6 13 12 15
5 27 14 27 19 0 5 7 9 16 9 14 0 14 -3 4 -15z m146 -36 c-14 -11 -32 -18 -39
-16 -7 4 -6 6 4 6 9 1 22 8 29 16 7 8 17 15 23 15 5 0 -2 -9 -17 -21z m-151
-39 c-3 -5 -12 -10 -18 -10 -7 0 -6 4 3 10 19 12 23 12 15 0z m310 -40 c-11
-5 -27 -9 -35 -9 -9 0 -8 4 5 9 11 5 27 9 35 9 9 0 8 -4 -5 -9z m-1948 -122
c-3 -8 -6 -5 -6 6 -1 11 2 17 5 13 3 -3 4 -12 1 -19z m3354 -38 c30 -17 22
-30 -11 -19 -16 6 -27 15 -24 20 7 11 11 11 35 -1z m-41 -80 c8 -5 12 -11 9
-14 -7 -8 -49 5 -49 15 0 12 21 11 40 -1z m25 -29 c-3 -5 7 -19 21 -30 15 -12
21 -21 15 -21 -15 0 -52 19 -68 36 -11 10 -9 13 9 17 13 2 24 5 26 6 2 0 1 -3
-3 -8z m-3266 -30 c8 -14 7 -22 -6 -32 -14 -12 -15 -11 -9 9 12 35 -2 26 -24
-18 -26 -51 -35 -52 -13 -2 17 37 33 62 39 62 2 0 8 -9 13 -19z m51 -27 c0 -8
-4 -12 -10 -9 -5 3 -10 10 -10 16 0 5 5 9 10 9 6 0 10 -7 10 -16z m672 -56
c-7 -7 -12 -8 -12 -2 0 14 12 26 19 19 2 -3 -1 -11 -7 -17z m-775 -90 c-3 -8
-6 -5 -6 6 -1 11 2 17 5 13 3 -3 4 -12 1 -19z m918 -87 c-14 -29 -35 -49 -35
-36 0 9 40 65 46 65 2 0 -2 -13 -11 -29z m115 25 c0 -11 -19 -15 -25 -6 -3 5
1 10 9 10 9 0 16 -2 16 -4z m2528 -38 c14 -14 16 -28 2 -28 -5 0 -14 9 -20 20
-12 22 -1 27 18 8z m-2431 -35 c4 -10 14 -23 22 -30 9 -7 11 -13 5 -13 -6 0
-19 9 -29 20 -10 11 -14 20 -9 20 5 0 2 5 -6 10 -10 7 -11 10 -2 10 7 0 16 -8
19 -17z m2493 -29 c0 -2 -9 0 -20 6 -11 6 -20 13 -20 16 0 2 9 0 20 -6 11 -6
20 -13 20 -16z m-3173 -16 c-3 -8 -6 -5 -6 6 -1 11 2 17 5 13 3 -3 4 -12 1
-19z m3161 -383 c9 -16 17 -48 18 -70 1 -29 0 -35 -6 -20 -5 11 -9 16 -10 10
0 -5 -9 5 -19 24 -10 19 -16 43 -13 53 2 10 0 18 -6 18 -5 0 -12 11 -15 25 -4
25 -4 25 15 8 11 -10 27 -31 36 -48z m26 -152 c12 -36 -2 -27 -19 13 -8 20
-15 39 -15 42 0 12 27 -33 34 -55z m-641 -587 c4 -10 1 -13 -8 -9 -8 3 -12 9
-9 14 7 12 11 11 17 -5z m-753 -208 c0 -6 -7 -7 -16 -4 -9 3 -18 6 -20 6 -3 0
-3 4 1 10 7 11 35 2 35 -12z m279 -4 c1 -1 0 -8 -4 -14 -5 -9 -10 -9 -18 -1
-6 6 -22 11 -36 11 -20 0 -23 2 -11 10 12 8 57 4 69 -6z m-254 -14 c3 -5 1
-10 -5 -10 -7 0 -9 -7 -6 -15 5 -14 3 -14 -15 -1 -12 8 -28 12 -35 9 -8 -3
-14 0 -14 5 0 6 12 13 28 15 15 2 30 5 34 6 4 0 10 -3 13 -9z m1104 -45 l0
-20 -9 20 c-5 11 -9 27 -9 35 -1 13 0 13 9 0 5 -8 9 -24 9 -35z m-456 -127
c42 -43 42 -52 7 -81 -26 -23 -105 -46 -116 -34 -2 2 7 24 21 48 13 24 25 56
25 72 0 37 23 35 63 -5z m-373 -35 c11 -25 19 -48 17 -49 -10 -10 -47 31 -47
52 0 13 -6 24 -12 24 -9 0 -8 4 2 10 8 5 16 10 17 10 1 0 11 -21 23 -47z
m-2427 -68 c-3 -9 -8 -14 -10 -11 -3 3 -2 9 2 15 9 16 15 13 8 -4z m2462 -155
c3 -5 1 -10 -4 -10 -6 0 -11 5 -11 10 0 6 2 10 4 10 3 0 8 -4 11 -10z"/>
<path d="M3480 6450 c8 -5 20 -10 25 -10 6 0 3 5 -5 10 -8 5 -19 10 -25 10 -5
0 -3 -5 5 -10z"/>
<path d="M2508 6893 c7 -3 16 -2 19 1 4 3 -2 6 -13 5 -11 0 -14 -3 -6 -6z"/>
<path d="M3490 6800 c0 -5 5 -10 10 -10 6 0 10 5 10 10 0 6 -4 10 -10 10 -5 0
-10 -4 -10 -10z"/>
<path d="M1728 6758 c9 -9 15 -9 24 0 9 9 7 12 -12 12 -19 0 -21 -3 -12 -12z"/>
<path d="M3600 6751 c0 -5 5 -13 10 -16 6 -3 10 -2 10 4 0 5 -4 13 -10 16 -5
3 -10 2 -10 -4z"/>
<path d="M752 5910 c0 -14 2 -19 5 -12 2 6 2 18 0 25 -3 6 -5 1 -5 -13z"/>
<path d="M865 5779 c-4 -6 -5 -12 -2 -15 2 -3 7 2 10 11 7 17 1 20 -8 4z"/>
<path d="M851 5734 c0 -11 3 -14 6 -6 3 7 2 16 -1 19 -3 4 -6 -2 -5 -13z"/>
<path d="M3220 5403 c-36 -35 -91 -83 -124 -106 -73 -52 -134 -106 -120 -107
10 0 165 119 209 160 61 58 105 105 105 112 0 11 3 13 -70 -59z"/>
<path d="M1930 5370 c0 -5 5 -10 10 -10 6 0 10 5 10 10 0 6 -4 10 -10 10 -5 0
-10 -4 -10 -10z"/>
<path d="M3000 5290 c-8 -5 -10 -10 -5 -10 6 0 17 5 25 10 8 5 11 10 5 10 -5
0 -17 -5 -25 -10z"/>
<path d="M4121 5064 c0 -11 3 -14 6 -6 3 7 2 16 -1 19 -3 4 -6 -2 -5 -13z"/>
<path d="M4117 5027 c-4 -10 -7 -28 -6 -40 0 -21 1 -21 10 2 5 14 8 32 7 40
-3 13 -5 13 -11 -2z"/>
<path d="M1661 4764 c0 -11 3 -14 6 -6 3 7 2 16 -1 19 -3 4 -6 -2 -5 -13z"/>
<path d="M1515 4466 c-16 -13 -34 -22 -38 -19 -13 8 -116 -108 -117 -130 0
-13 -5 -17 -19 -12 -20 6 -65 -39 -58 -59 2 -6 -3 -17 -10 -25 -8 -7 -12 -18
-10 -25 6 -18 37 -7 66 23 22 23 39 29 85 33 31 3 51 1 44 -3 -8 -6 2 -9 26
-9 32 0 36 2 27 14 -18 22 25 33 48 12 10 -9 24 -16 32 -16 11 0 12 2 1 9 -26
16 18 22 80 11 32 -6 63 -8 68 -5 6 3 10 3 10 -2 0 -4 20 -9 44 -11 25 -1 81
-15 126 -31 55 -19 94 -27 124 -25 55 5 99 -23 77 -50 -7 -9 -20 -16 -28 -16
-8 0 -11 -4 -8 -10 3 -6 -1 -7 -10 -4 -8 4 -21 2 -28 -4 -6 -5 -65 -10 -129
-10 -112 -1 -226 -22 -280 -52 -10 -6 -33 -10 -52 -10 -22 0 -45 -9 -63 -24
-15 -13 -49 -33 -75 -46 -26 -12 -52 -28 -59 -36 -22 -27 36 -15 77 16 21 16
46 30 55 30 19 0 76 28 84 41 9 14 35 11 35 -5 0 -13 -33 -29 -56 -27 -6 1
-29 -17 -52 -39 -45 -42 -80 -65 -89 -57 -7 8 -53 -35 -48 -44 3 -4 41 -5 85
-2 66 5 83 3 93 -10 7 -9 24 -19 39 -22 20 -5 29 -2 37 13 13 24 6 48 -15 56
-20 8 -18 35 4 43 9 3 24 12 32 19 9 7 31 15 49 16 30 3 33 0 48 -42 8 -25 29
-60 46 -78 l32 -34 -54 6 c-30 4 -66 13 -79 22 -26 17 -52 13 -52 -9 0 -19 30
-43 63 -51 17 -4 25 -11 21 -18 -5 -7 -2 -9 8 -5 9 3 20 1 26 -5 7 -7 17 -6
31 1 16 9 19 9 16 -1 -4 -9 6 -13 30 -13 19 0 35 3 35 7 0 5 16 7 35 5 20 -1
35 -7 35 -14 0 -9 -7 -10 -23 -4 -18 7 -23 6 -23 -9 0 -10 4 -16 8 -14 4 3 24
2 44 -2 34 -6 36 -8 19 -20 -22 -16 -13 -49 12 -40 9 4 24 -1 33 -9 16 -14 18
-14 24 2 6 14 10 12 26 -15 15 -25 27 -32 50 -32 20 0 30 -5 30 -15 0 -19 24
-20 42 -1 8 7 31 19 52 27 21 8 41 20 43 26 3 7 9 11 13 8 4 -3 13 9 20 25 12
30 30 41 30 18 0 -16 29 24 30 41 0 7 -6 11 -15 7 -18 -7 -38 55 -21 66 23 16
46 8 52 -19 4 -15 12 -37 18 -49 11 -21 13 -21 34 -4 22 18 62 106 68 150 1
13 -2 30 -7 37 -6 7 -8 20 -5 30 2 10 -3 32 -12 49 -9 18 -26 48 -36 69 -12
22 -24 34 -32 31 -8 -3 -14 1 -14 10 0 8 -4 12 -10 9 -5 -3 -10 1 -10 11 0 14
7 15 44 10 52 -8 64 3 30 28 -22 18 -36 64 -14 51 6 -3 10 -1 10 4 0 6 -5 11
-12 11 -6 0 -8 3 -5 6 4 4 -5 20 -18 36 -14 16 -25 37 -25 46 0 15 2 15 10 2
6 -9 10 -10 10 -3 0 14 -31 33 -52 33 -8 0 -6 -4 5 -11 31 -18 18 -27 -17 -11
-19 9 -33 19 -31 22 6 10 -42 30 -71 30 -14 0 -37 6 -52 14 -15 8 -66 17 -112
21 -47 3 -89 10 -94 15 -6 6 -22 10 -37 10 -15 0 -29 5 -31 12 -3 7 -24 10
-59 9 -133 -7 -144 -6 -141 8 2 9 -3 11 -15 6 -10 -4 -35 -9 -56 -12 -33 -5
-37 -4 -30 13 6 17 5 17 -10 5 -9 -7 -17 -10 -17 -6 0 4 -8 1 -17 -6 -15 -11
-14 -10 1 9 l19 22 -34 0 c-21 0 -46 -9 -64 -24z m-204 -229 c-10 -9 -11 -8
-5 6 3 10 9 15 12 12 3 -3 0 -11 -7 -18z m1015 -72 c-3 -9 0 -15 9 -15 8 0 15
-5 15 -11 0 -5 -4 -8 -9 -4 -5 3 -12 1 -16 -4 -4 -7 -15 -7 -31 -1 -34 13 -37
13 -31 -4 7 -18 -14 -38 -29 -28 -6 4 -14 17 -18 28 -7 23 13 34 66 34 15 0
30 5 33 10 10 15 18 12 11 -5z m-156 -10 c10 -12 10 -15 -4 -15 -9 0 -16 7
-16 15 0 8 2 15 4 15 2 0 9 -7 16 -15z m218 -23 c-5 -27 -28 -26 -28 2 0 19 4
24 15 19 9 -3 15 -12 13 -21z m-252 -29 c-3 -3 -13 -3 -22 1 -16 6 -15 8 2 21
16 12 19 12 22 -1 2 -9 1 -18 -2 -21z m27 -161 c9 -8 15 -17 12 -20 -3 -3 0
-11 5 -17 22 -26 -59 -75 -123 -75 l-27 0 30 47 c17 26 30 57 30 70 0 20 4 23
28 17 15 -4 35 -14 45 -22z m85 -67 c-3 -3 -9 2 -12 12 -6 14 -5 15 5 6 7 -7
10 -15 7 -18z m190 -47 c-4 -25 -28 -37 -28 -14 0 9 -7 16 -15 16 -8 0 -15 5
-15 10 0 6 14 10 31 10 26 0 30 -3 27 -22z m-188 -209 c0 -4 -7 -6 -15 -3 -8
4 -15 10 -15 15 0 4 7 6 15 3 8 -4 15 -10 15 -15z m-120 -9 c0 -13 -11 -13
-30 0 -12 8 -11 10 8 10 12 0 22 -4 22 -10z"/>
<path d="M2474 4236 c10 -54 24 -86 37 -86 9 0 9 3 0 14 -6 8 -14 31 -17 52
-2 21 -9 43 -15 49 -8 7 -10 -1 -5 -29z"/>
<path d="M1246 4155 c4 -8 10 -12 15 -9 11 6 2 24 -11 24 -5 0 -7 -7 -4 -15z"/>
<path d="M3692 3601 c-10 -6 -6 -10 15 -14 31 -6 46 0 38 14 -8 11 -36 12 -53
0z"/>
<path d="M2030 3589 c0 -5 5 -7 10 -4 6 3 10 8 10 11 0 2 -4 4 -10 4 -5 0 -10
-5 -10 -11z"/>
<path d="M2130 3570 c0 -5 5 -10 10 -10 6 0 10 5 10 10 0 6 -4 10 -10 10 -5 0
-10 -4 -10 -10z"/>
<path d="M4306 3441 c-4 -7 -5 -15 -2 -18 9 -9 19 4 14 18 -4 11 -6 11 -12 0z"/>
<path d="M1037 3324 c-3 -5 -8 -29 -12 -55 -6 -42 -5 -46 19 -57 26 -11 26
-11 26 31 -1 42 -23 97 -33 81z"/>
<path d="M3273 3042 c-18 -12 5 -122 24 -115 16 6 17 33 1 33 -9 0 -9 3 1 13
10 10 15 9 24 -3 7 -9 25 -17 41 -18 16 -1 39 -13 53 -28 14 -15 30 -23 39
-20 8 3 22 2 32 -3 9 -5 25 -12 34 -15 11 -3 15 -12 11 -27 -5 -18 -3 -20 16
-14 11 3 21 3 21 -2 0 -5 10 -13 23 -18 12 -6 21 -16 19 -23 -1 -7 4 -12 12
-12 8 0 12 8 9 23 -3 15 -18 29 -44 40 -42 18 -53 32 -16 22 22 -6 21 -6 -2
13 l-25 20 25 5 c19 3 20 5 4 6 -11 0 -25 11 -30 23 -6 13 -19 24 -30 26 -51
7 -65 14 -65 28 0 11 -6 15 -19 11 -11 -3 -29 2 -41 10 -13 9 -33 13 -50 10
-19 -4 -30 -2 -34 8 -6 17 -15 18 -33 7z"/>
<path d="M2181 3006 c-9 -10 -6 -17 13 -30 33 -21 33 -21 28 14 -5 32 -22 39
-41 16z"/>
<path d="M2250 2950 c0 -5 -7 -10 -16 -10 -11 0 -14 -5 -10 -16 3 -9 6 -21 6
-27 0 -7 3 -7 9 -1 10 11 24 64 16 64 -3 0 -5 -4 -5 -10z"/>
<path d="M1910 2863 c0 -5 9 -14 20 -21 11 -7 20 -8 20 -2 0 5 -9 14 -20 20
-11 6 -20 7 -20 3z"/>
<path d="M1974 2835 c-11 -35 -8 -41 11 -27 11 8 17 62 6 62 -3 0 -11 -16 -17
-35z"/>
<path d="M3010 2830 c-11 -11 -20 -25 -20 -31 0 -6 -6 -9 -13 -6 -8 3 -14 -4
-15 -20 -3 -34 -6 -38 -54 -63 -27 -14 -44 -18 -46 -11 -2 6 -10 11 -17 11 -8
0 -19 8 -24 18 -8 14 -10 14 -11 2 0 -12 -9 -15 -41 -12 -22 2 -43 10 -45 16
-6 16 -66 8 -61 -8 2 -6 12 -15 23 -21 25 -13 29 -48 4 -40 -24 8 -50 -4 -50
-24 0 -10 3 -12 8 -4 5 8 14 6 31 -8 l23 -19 -22 0 c-21 0 -21 -1 7 -30 15
-16 34 -30 41 -30 8 0 10 -5 5 -12 -4 -7 -8 -19 -10 -27 -1 -8 -8 -18 -17 -23
-16 -9 -19 -68 -3 -68 5 0 7 -7 3 -15 -3 -8 -1 -15 4 -15 6 0 10 7 10 15 0 20
27 19 48 -2 16 -16 17 -15 20 1 2 10 -3 25 -12 35 -9 10 -16 30 -16 45 0 23 3
25 18 17 11 -6 24 -6 33 0 31 19 41 0 14 -28 -23 -22 -13 -38 24 -41 19 -2 31
1 27 6 -3 5 1 15 10 22 8 7 12 20 9 28 -3 8 -1 20 5 27 8 9 8 15 0 20 -17 10
-11 25 10 25 14 0 18 5 13 16 -4 10 0 20 10 26 10 5 17 17 17 27 0 25 11 33
28 19 11 -10 16 -9 23 5 6 9 17 17 25 17 8 0 13 -4 10 -9 -3 -5 1 -14 8 -20
11 -9 17 -7 30 10 13 19 18 20 31 9 9 -7 13 -21 10 -31 -4 -11 -2 -19 3 -19 6
0 9 11 7 25 -2 19 2 25 16 25 11 0 19 3 19 8 0 4 11 20 25 36 13 16 22 32 20
37 -3 4 -1 10 5 14 26 16 3 25 -67 26 -55 1 -70 3 -53 9 23 7 22 8 -10 10 -29
1 -32 3 -15 10 19 8 19 9 -2 9 -16 1 -21 6 -17 16 9 21 -12 19 -36 -5z"/>
<path d="M2248 2804 c3 -16 14 -29 31 -35 14 -6 35 -20 46 -33 17 -18 28 -21
68 -18 26 2 47 8 47 13 0 5 -5 9 -12 9 -6 0 -9 2 -6 5 3 3 18 1 34 -5 47 -18
114 -29 107 -17 -4 6 2 8 15 5 18 -5 19 -3 10 18 -6 13 -15 24 -19 24 -4 0 -7
12 -6 28 2 23 -2 27 -25 28 -29 1 -38 -18 -15 -33 18 -12 -114 -23 -137 -11
-10 6 -35 8 -54 4 -29 -4 -39 -1 -58 19 -29 31 -32 31 -26 -1z"/>
<path d="M3645 2763 c-8 -25 -25 -29 -43 -11 -9 9 -12 9 -12 0 0 -7 14 -27 32
-44 l31 -30 18 23 c22 29 24 50 5 43 -9 -4 -16 3 -19 18 l-4 23 -8 -22z"/>
<path d="M2871 2714 c0 -11 3 -14 6 -6 3 7 2 16 -1 19 -3 4 -6 -2 -5 -13z"/>
<path d="M1845 2690 c-3 -5 -12 -7 -20 -3 -9 3 -15 -1 -15 -10 0 -24 22 -32
35 -14 7 10 17 17 24 17 6 0 11 5 11 10 0 13 -27 13 -35 0z"/>
<path d="M3680 2665 c0 -8 5 -15 11 -15 5 0 8 -4 4 -9 -3 -5 -1 -12 5 -16 6
-4 8 -11 5 -16 -4 -5 0 -9 7 -9 7 -1 26 -19 41 -41 23 -34 28 -51 28 -105 1
-35 2 -64 4 -64 10 0 60 57 62 70 1 8 -4 20 -12 26 -7 5 -13 17 -13 25 4 57
-4 100 -17 105 -8 4 -29 19 -46 35 -25 23 -35 27 -45 18 -10 -8 -14 -8 -14 0
0 6 -4 11 -10 11 -5 0 -10 -7 -10 -15z"/>
<path d="M1878 2653 c7 -3 16 -2 19 1 4 3 -2 6 -13 5 -11 0 -14 -3 -6 -6z"/>
<path d="M1780 2620 c0 -5 5 -10 11 -10 5 0 7 5 4 10 -3 6 -8 10 -11 10 -2 0
-4 -4 -4 -10z"/>
<path d="M1230 2586 c0 -8 5 -27 10 -42 14 -37 32 -18 24 24 -6 31 -34 46 -34
18z"/>
<path d="M2397 2582 c3 -8 1 -17 -6 -21 -8 -5 -3 -11 13 -19 19 -9 27 -8 36 3
17 20 6 41 -23 47 -19 4 -24 1 -20 -10z"/>
<path d="M2700 2520 c0 -11 2 -20 4 -20 2 0 6 9 9 20 3 11 1 20 -4 20 -5 0 -9
-9 -9 -20z"/>
<path d="M4120 2466 c0 -2 -17 -60 -39 -129 -76 -243 -149 -368 -324 -550 -15
-16 -34 -42 -43 -58 -8 -16 -18 -29 -22 -29 -4 0 -14 -15 -21 -32 -8 -18 -31
-49 -50 -68 -20 -20 -44 -47 -53 -60 -16 -24 -17 -24 -17 -4 -1 11 2 23 5 27
8 7 11 106 4 105 -20 -1 -43 4 -33 8 7 3 9 13 6 22 -6 15 -4 15 10 4 18 -15
37 -8 37 14 0 12 -19 19 -44 15 -4 -1 -19 6 -33 14 -30 20 -45 11 -17 -10 17
-13 17 -14 2 -15 -23 0 -12 -30 11 -30 13 0 13 -2 2 -9 -7 -5 -10 -14 -7 -20
4 -6 3 -11 -2 -11 -13 0 -22 -33 -27 -98 -4 -43 -10 -58 -38 -85 -19 -17 -32
-38 -29 -45 2 -6 -2 -12 -8 -12 -7 0 -11 -9 -8 -23 3 -16 -4 -30 -24 -47 -15
-13 -31 -39 -34 -57 -6 -33 -19 -43 -26 -21 -2 6 -12 -5 -22 -26 -12 -25 -23
-36 -32 -32 -8 3 -14 1 -14 -3 0 -5 -10 -9 -22 -10 -53 -2 -68 -6 -68 -18 0
-7 -5 -13 -11 -13 -5 0 -7 -5 -4 -10 4 -6 3 -10 -2 -8 -4 1 -33 -6 -65 -15
-72 -22 -90 -21 -133 3 -19 11 -41 17 -49 14 -9 -3 -13 1 -13 13 2 13 -4 17
-21 15 -17 -1 -25 4 -29 18 -5 19 -6 19 -18 3 -8 -10 -17 -14 -21 -10 -5 4 -2
12 5 16 8 5 10 14 6 21 -6 9 -13 6 -26 -11 -10 -13 -19 -30 -19 -37 0 -9 -7
-11 -22 -7 -18 5 -20 4 -8 -4 12 -8 12 -13 2 -23 -6 -6 -12 -22 -12 -35 0 -16
-8 -27 -25 -33 -14 -5 -25 -14 -25 -20 0 -5 -20 -10 -44 -10 -34 0 -46 4 -50
18 -4 10 -22 25 -41 32 -19 8 -35 17 -35 22 0 4 -13 8 -30 8 -17 0 -30 5 -30
13 0 7 -3 8 -8 2 -11 -16 -92 -13 -92 4 0 9 -4 10 -12 3 -13 -10 -59 -9 -77 3
-6 3 -11 12 -11 20 0 15 -66 33 -77 21 -9 -9 -43 24 -43 41 0 11 -8 13 -29 8
-26 -6 -29 -4 -24 14 3 14 1 21 -9 21 -7 0 -15 11 -16 25 -1 14 -11 34 -22 45
-12 12 -18 25 -15 29 2 5 -5 12 -18 16 -13 4 -17 8 -9 12 19 7 15 19 -19 52
-20 20 -29 37 -25 47 5 13 2 15 -13 11 -11 -3 -26 1 -32 9 -10 12 -9 13 5 8
23 -9 20 13 -4 26 -11 6 -19 14 -16 18 5 9 -53 37 -60 30 -2 -3 7 -17 20 -31
18 -19 21 -27 11 -27 -18 0 -20 -16 -2 -23 9 -4 9 -6 0 -6 -18 -1 -16 -31 2
-31 8 0 15 -4 15 -10 0 -10 -43 -24 -58 -18 -12 4 -77 83 -144 176 -29 40
-110 150 -180 245 -115 155 -228 347 -228 386 0 32 -30 -4 -92 -110 -37 -63
-86 -138 -110 -168 -88 -111 -115 -148 -175 -246 -55 -90 -103 -183 -147 -285
-8 -19 -27 -80 -41 -135 -37 -138 -45 -151 -91 -147 -22 2 -43 -3 -53 -12 -11
-10 -21 -12 -31 -6 -34 22 -207 3 -398 -42 l-92 -22 0 -543 0 -543 3600 0
3600 0 0 194 c0 209 0 209 -55 215 -16 1 -34 7 -39 12 -6 5 -18 9 -27 9 -10 0
-25 7 -34 16 -19 19 -45 11 -52 -16 -3 -11 -13 -20 -22 -20 -9 0 -27 -3 -41
-7 -22 -6 -23 -5 -12 9 10 12 10 18 1 24 -8 5 -3 12 15 21 14 8 31 11 36 8 5
-3 11 -1 15 5 4 6 -5 10 -19 10 -14 0 -26 4 -26 10 0 5 -7 7 -16 3 -11 -4 -22
1 -30 12 -13 18 -14 18 -14 -3 0 -27 0 -27 -49 -1 -32 16 -42 28 -47 55 -4 25
-15 39 -35 50 -16 8 -29 19 -29 25 0 6 -5 7 -11 4 -14 -9 -80 37 -75 52 3 7
-1 10 -11 6 -12 -5 -14 -1 -8 16 6 20 4 22 -14 16 -12 -3 -21 -2 -21 4 0 5
-22 17 -50 26 -52 17 -63 30 -32 38 13 4 12 5 -5 6 -12 0 -45 15 -73 31 -28
17 -57 30 -64 30 -8 0 -19 7 -26 15 -7 8 -23 15 -36 15 -12 0 -26 5 -29 10 -9
14 -112 80 -158 102 -27 12 -51 15 -87 11 -38 -4 -55 -2 -68 10 -9 8 -37 21
-62 27 -25 7 -47 16 -50 20 -3 5 -33 11 -66 13 -34 2 -67 7 -73 11 -23 15
-152 46 -187 46 -20 0 -52 9 -70 21 -26 16 -54 21 -128 24 -52 2 -103 8 -114
14 -10 6 -37 11 -58 12 -21 1 -70 7 -109 14 -38 7 -97 16 -129 20 -51 6 -58 5
-53 -9 8 -21 3 -20 -44 10 -23 14 -47 23 -55 20 -7 -3 -16 -1 -19 4 -4 6 -2
10 4 10 16 0 -12 60 -32 66 -10 3 -16 12 -13 19 3 8 -2 19 -10 25 -8 7 -14 22
-14 34 0 12 -7 31 -15 42 -8 10 -15 26 -15 35 0 9 -11 22 -25 29 -14 7 -34 28
-45 47 -10 18 -26 33 -35 33 -8 0 -15 6 -15 13 0 7 -8 22 -17 33 -64 70 -75
94 -88 197 -38 289 -103 456 -222 568 -44 42 -73 60 -73 45z m-590 -854 c0
-15 -2 -15 -10 -2 -13 20 -13 33 0 25 6 -3 10 -14 10 -23z m3353 -1172 c3 -11
1 -23 -4 -26 -5 -3 -9 -1 -9 5 0 5 -3 16 -6 25 -3 9 -2 16 4 16 5 0 12 -9 15
-20z m154 -56 c-9 -9 -28 6 -21 18 4 6 10 6 17 -1 6 -6 8 -13 4 -17z"/>
<path d="M3654 2387 c-12 -12 -39 -28 -60 -36 -22 -7 -62 -29 -90 -47 -29 -19
-64 -38 -78 -44 -36 -13 -142 -15 -196 -2 -84 19 -230 23 -325 8 -49 -7 -93
-12 -98 -9 -4 2 -76 6 -160 9 -111 3 -166 1 -206 -10 -30 -8 -61 -12 -68 -9
-7 3 -20 0 -28 -7 -8 -7 -63 -14 -134 -17 l-119 -5 -63 38 c-35 21 -71 44 -80
51 -8 7 -26 13 -39 13 -12 0 -32 11 -44 25 -30 35 -77 43 -94 16 -10 -17 -10
-21 0 -21 9 0 8 -4 -2 -11 -10 -7 -11 -12 -4 -15 6 -3 9 -16 6 -30 -3 -20 0
-26 17 -31 11 -3 21 -11 21 -18 0 -7 11 -24 25 -39 14 -15 25 -31 25 -35 0 -5
9 -11 20 -14 13 -3 21 1 26 15 4 15 12 18 29 14 13 -3 25 -2 27 2 5 14 58 24
58 11 0 -6 9 -9 20 -6 11 3 23 1 26 -4 3 -5 9 -7 13 -4 5 2 19 -7 32 -21 27
-29 93 -66 102 -58 3 4 16 -1 28 -9 23 -17 49 -13 49 8 0 32 79 25 154 -13 31
-15 44 -17 58 -9 20 13 34 4 22 -14 -4 -7 -9 -25 -10 -38 -3 -28 -28 -51 -55
-51 -10 0 -19 -6 -22 -12 -7 -20 12 -48 28 -42 8 4 15 1 15 -6 0 -8 9 -7 28 5
15 10 21 12 15 4 -20 -21 -16 -41 7 -34 11 4 20 2 20 -4 0 -6 5 -11 11 -11 5
0 7 5 4 10 -12 19 26 43 71 44 42 1 65 16 24 16 -12 0 -20 7 -20 18 0 10 -3
13 -8 6 -10 -15 -59 -26 -66 -15 -4 5 0 12 6 14 10 4 10 8 -1 15 -15 11 -22
62 -9 62 4 0 8 7 8 15 0 8 9 16 20 16 77 5 107 4 117 -4 7 -5 20 -4 33 3 12 6
51 12 88 13 37 1 70 6 73 10 6 9 80 13 144 8 49 -3 152 14 170 29 11 9 18 5
31 -15 13 -19 20 -23 30 -14 7 6 18 8 24 4 6 -4 24 7 41 24 16 17 41 32 56 33
18 2 28 11 35 30 7 19 17 28 32 28 12 0 38 14 56 30 18 17 39 30 46 30 7 0 30
16 51 36 21 20 46 40 55 45 18 10 24 34 10 43 -4 2 -17 -5 -28 -17z m-1849
-27 c3 -5 1 -10 -4 -10 -6 0 -11 5 -11 10 0 6 2 10 4 10 3 0 8 -4 11 -10z m70
-150 c3 -5 -1 -10 -10 -10 -9 0 -13 5 -10 10 3 6 8 10 10 10 2 0 7 -4 10 -10z
m675 -260 c0 -5 -4 -10 -10 -10 -5 0 -10 5 -10 10 0 6 5 10 10 10 6 0 10 -4
10 -10z"/>
<path d="M2730 2391 c0 -5 5 -13 10 -16 6 -3 10 -2 10 4 0 5 -4 13 -10 16 -5
3 -10 2 -10 -4z"/>
<path d="M1848 2066 c-10 -7 -18 -18 -18 -23 0 -6 -11 -21 -24 -35 -27 -30
-38 -54 -40 -86 -1 -13 -8 -28 -16 -33 -11 -8 -12 -12 -2 -16 6 -2 12 -13 12
-23 0 -11 6 -23 13 -27 7 -4 20 -20 30 -35 20 -32 41 -37 32 -9 -5 16 -2 18
14 14 12 -3 29 -2 38 2 17 7 16 8 -2 15 -18 7 -18 8 8 15 29 8 37 25 12 25 -8
0 -15 9 -15 20 0 12 7 20 17 20 14 0 14 3 -5 20 -12 11 -26 20 -32 20 -5 0
-10 9 -10 21 0 15 -5 19 -15 15 -8 -3 -15 -3 -15 -1 0 10 26 62 43 88 20 30 6
37 -25 13z m-53 -216 c3 -5 1 -10 -4 -10 -6 0 -11 5 -11 10 0 6 2 10 4 10 3 0
8 -4 11 -10z"/>
<path d="M3588 2043 c-17 -20 -32 -54 -30 -66 1 -4 -7 -25 -18 -47 -11 -21
-20 -49 -20 -60 0 -12 -4 -19 -9 -16 -4 3 -16 -3 -25 -13 -14 -16 -14 -20 -2
-30 8 -6 12 -20 9 -30 -3 -11 2 -21 13 -25 20 -8 34 2 18 12 -6 4 -11 14 -11
22 0 8 -4 24 -8 35 -6 18 -5 18 5 3 6 -9 17 -15 25 -12 8 4 18 -1 21 -10 3 -9
10 -16 16 -16 5 0 6 6 2 13 -5 8 -2 8 9 -2 19 -15 22 -5 7 34 -8 20 -7 27 5
31 8 4 15 17 15 29 0 13 5 27 11 31 6 3 9 14 6 24 -3 14 -1 17 11 12 12 -4 10
3 -7 26 -12 18 -20 35 -17 40 2 4 1 13 -3 20 -6 9 -11 8 -23 -5z"/>
<path d="M3402 2027 c-15 -17 0 -39 22 -31 18 7 18 35 0 41 -6 2 -16 -2 -22
-10z"/>
<path d="M1866 2011 c-4 -7 -5 -15 -2 -18 9 -9 19 4 14 18 -4 11 -6 11 -12 0z"/>
<path d="M3070 1985 c10 -12 10 -18 -1 -32 -13 -17 -13 -17 6 -3 40 30 41 50
3 50 -17 0 -18 -2 -8 -15z"/>
<path d="M2816 1962 c-2 -4 -1 -14 5 -22 7 -12 9 -10 9 8 0 23 -5 28 -14 14z"/>
<path d="M2692 1935 c3 -14 1 -25 -3 -25 -5 0 -10 -12 -10 -27 -1 -22 -3 -24
-6 -7 -6 30 -37 36 -52 11 -11 -17 -11 -19 3 -14 11 4 16 1 16 -11 0 -25 -28
-62 -48 -62 -22 0 -66 -46 -52 -55 5 -3 10 -15 10 -25 0 -13 9 -22 26 -26 17
-5 22 -9 14 -14 -10 -6 -10 -18 -1 -53 6 -25 8 -53 5 -61 -8 -20 10 -21 26 -1
7 8 16 12 21 10 4 -3 12 2 17 12 9 14 13 15 26 4 9 -7 14 -17 11 -21 -9 -15
28 -16 82 -4 28 7 53 10 55 8 2 -2 17 8 32 21 32 27 42 30 51 15 3 -5 12 -10
20 -10 17 0 15 49 -3 69 -16 17 1 41 29 41 11 0 19 5 19 10 0 6 9 10 19 10 11
0 23 5 26 10 4 6 11 8 16 4 11 -6 69 52 69 69 0 5 -9 11 -20 14 -11 3 -20 9
-20 13 0 4 -21 5 -46 2 -32 -3 -45 -1 -40 6 17 28 -30 18 -126 -27 -45 -21
-49 -21 -80 -5 -42 21 -40 18 -32 38 5 13 14 16 30 12 28 -7 34 17 8 32 -13 7
-14 13 -5 30 14 25 -6 43 -23 21 -16 -20 -36 -22 -42 -4 -10 25 -27 17 -22
-10z m29 -348 c-1 -12 -15 -9 -19 4 -3 6 1 10 8 8 6 -3 11 -8 11 -12z"/>
<path d="M2884 1915 c-5 -12 -10 -13 -20 -4 -16 13 -38 0 -40 -23 -1 -14 3
-16 25 -11 14 4 34 7 43 7 13 0 14 4 7 18 -6 12 -6 18 1 18 5 0 10 -6 10 -12
0 -10 2 -10 9 0 4 8 12 14 16 14 4 0 12 -6 17 -14 8 -10 9 -10 5 2 -5 21 -65
26 -73 5z"/>
<path d="M2950 1685 c0 -20 17 -28 23 -11 3 8 -1 17 -9 20 -8 3 -14 -1 -14 -9z"/>
<path d="M1825 1680 c11 -5 27 -9 35 -9 9 0 8 4 -5 9 -11 5 -27 9 -35 9 -9 0
-8 -4 5 -9z"/>
<path d="M1860 1640 c0 -5 5 -10 10 -10 6 0 10 5 10 10 0 6 -4 10 -10 10 -5 0
-10 -4 -10 -10z"/>
<path d="M1834 1601 c7 -11 56 -21 56 -11 0 4 -10 10 -22 14 -32 8 -40 7 -34
-3z"/>
<path d="M7175 460 c-3 -5 1 -10 9 -10 9 0 16 5 16 10 0 6 -4 10 -9 10 -6 0
-13 -4 -16 -10z"/>
</g>
</svg>
