<?xml version="1.0" encoding="utf-8"?>
<!-- Generator: Adobe Illustrator 19.0.0, SVG Export Plug-In . SVG Version: 6.00 Build 0)  -->
<svg version="1.1" id="Ebene_1" xmlns="http://www.w3.org/2000/svg" xmlns:xlink="http://www.w3.org/1999/xlink" x="0px" y="0px"
	 width="426px" height="92.7px" viewBox="0 0 426 92.7" enable-background="new 0 0 426 92.7" xml:space="preserve">
<g id="XMLID_2_">
	<path id="XMLID_97_" fill="#27282E" d="M25.7,0.3v57.2h-5.9V28l-4.4,19.6h-1.8c-0.8,0-1.5-0.2-2.1-0.5c-0.6-0.4-1-0.8-1.3-1.3
		c-0.3-0.5-0.5-1-0.7-1.5c-0.1-0.5-0.2-0.9-0.3-1.3L5.9,28v29.5H0V0.3h3.6c0.4,0,0.8,0.1,1.2,0.3C5,0.7,5.3,0.9,5.6,1.2
		c0.3,0.3,0.5,0.7,0.6,1.2L13,35.3l6.4-32.9c0.1-0.2,0.2-0.6,0.5-1.2c0.3-0.6,1-0.9,2-0.9H25.7z"/>
	<path id="XMLID_95_" fill="#27282E" d="M47.7,1.1c0.3,0.5,0.5,1,0.5,1.5v54.9h-4.2c-0.7,0-1.1-0.1-1.3-0.4
		c-0.2-0.3-0.3-0.6-0.4-0.8V0.3h3.5C46.8,0.3,47.4,0.6,47.7,1.1z"/>
	<path id="XMLID_54_" fill="#27282E" d="M82.6,50.7c0,2-0.7,3.6-2,5c-1.4,1.4-3,2.1-5,2.3h-3.7c-2,0-3.7-0.7-5.1-2.1
		c-1.4-1.4-2.1-3.1-2.1-5.1V29v-0.1V7.3c0-2,0.7-3.7,2.1-5.1C68.2,0.7,69.9,0,71.9,0h3.7c2,0.1,3.6,0.9,5,2.3c1.4,1.4,2,3.1,2,5v8.6
		c0,0.9-0.2,1.7-0.5,2.1c-0.3,0.5-0.7,0.8-1.1,1c-0.3,0.1-0.9,0.4-1.8,0.8c-0.9,0.4-1.7,0.8-2.5,1.1V8.2c0-0.8-0.3-1.5-0.9-2
		c-0.6-0.5-1.3-0.8-2.2-0.8c-0.9,0-1.6,0.3-2.2,0.8c-0.6,0.5-0.9,1.2-0.9,2v20.7V29v20.7c0,0.8,0.3,1.6,0.9,2.2
		c0.6,0.6,1.3,0.9,2.2,0.9c0.8,0,1.6-0.3,2.2-0.9c0.6-0.6,0.9-1.3,0.9-2.2V42c0-0.9,0.2-1.7,0.5-2.1c0.3-0.5,0.7-0.8,1.1-1
		c0.3-0.1,0.9-0.4,1.8-0.8c0.9-0.4,1.7-0.8,2.5-1.1V50.7z"/>
	<path id="XMLID_56_" fill="#27282E" d="M115.6,1.1c0.3,0.5,0.5,1,0.5,1.5v54.9h-5.9V32.6c-0.1-0.8-0.6-1.3-1.4-1.3h-6.4v26.2h-5.9
		V2.6c0-0.5,0.2-1,0.5-1.5c0.3-0.5,0.9-0.8,1.8-0.8h3.5v23.1c0,0.8,0.2,1.4,0.5,1.7c0.3,0.3,0.8,0.4,1.5,0.4h5.8V0.3h3.5
		C114.7,0.3,115.3,0.6,115.6,1.1z"/>
	<path id="XMLID_58_" fill="#27282E" d="M149.3,57.5h-6.4l-5.1-39.5l-5.2,39.5h-6.4l8.7-57.2h3.1c1.3,0,2.1,0.3,2.5,1
		c0.4,0.6,0.6,1.4,0.7,2.1L149.3,57.5z"/>
	<path id="XMLID_60_" fill="#27282E" d="M163,51.7h12.3c0.4,0,0.5,0.2,0.4,0.6c-0.1,0.4-0.3,0.9-0.6,1.4c-0.3,0.5-0.6,1-1,1.5
		c-0.4,0.4-0.6,0.7-0.7,0.8c-0.2,0.4-0.5,0.8-1,1.1c-0.5,0.3-1.2,0.5-2.1,0.5h-13.1V2c0-0.5,0.2-0.9,0.5-1.2
		c0.4-0.3,0.8-0.5,1.2-0.5h15.3c0.4,0,0.5,0.2,0.4,0.6c-0.1,0.4-0.3,0.9-0.6,1.4c-0.3,0.5-0.6,1-1,1.4c-0.4,0.4-0.6,0.7-0.7,0.8
		c-0.2,0.4-0.5,0.8-1,1.1c-0.5,0.4-1.2,0.5-2.1,0.5h-4.8c-0.4,0-0.7,0.1-1,0.4c-0.3,0.3-0.4,0.6-0.4,1v17.1h8.9
		c0.4,0,0.5,0.2,0.5,0.6c-0.1,0.4-0.3,0.9-0.6,1.4c-0.3,0.5-0.7,1-1,1.4c-0.4,0.4-0.6,0.7-0.8,0.7c-0.2,0.4-0.5,0.8-1,1.2
		c-0.5,0.3-1.2,0.5-2.1,0.5l-2.4-0.1c-0.4,0-0.7,0.1-1,0.4c-0.3,0.3-0.4,0.6-0.4,1V51.7z"/>
	<path id="XMLID_62_" fill="#27282E" d="M204.2,51.7c-0.3,0.8-0.6,1.6-1,2.5c-0.4,0.9-0.7,1.5-0.8,1.8c-0.2,0.4-0.6,0.8-1,1.1
		c-0.5,0.3-1.2,0.5-2.1,0.5h-14V0.3h4.1c0.5,0,0.9,0.2,1.3,0.5c0.3,0.3,0.5,0.8,0.5,1.3v49.6H204.2z"/>
</g>
<g id="XMLID_147_">
	<path id="XMLID_64_" fill="#27282E" d="M255.5,12.9c-0.3,0.1-0.9,0.4-1.8,0.8c-0.9,0.4-1.7,0.8-2.4,1.1V8.3c0-0.9-0.3-1.6-0.9-2.3
		c-0.6-0.6-1.4-0.9-2.3-0.9c-0.8,0-1.6,0.3-2.2,0.9c-0.6,0.6-0.9,1.4-0.9,2.3v5.4c0.1,0.7,0.2,1.4,0.4,2.2c0.2,0.7,0.4,1.5,0.7,2.4
		c0.3,0.9,0.8,2,1.4,3.1l6.9,13c0.4,1.1,0.9,2.1,1.2,3.1c0.3,0.9,0.6,1.9,0.9,2.9c0.3,1.1,0.4,2.1,0.4,3v7.2c0,2-0.7,3.7-2.1,5.1
		c-1.4,1.4-3.1,2.1-5.1,2.1h-3.7c-1.9-0.1-3.6-0.8-5-2.2c-1.4-1.4-2-3-2-5v-5.9c0-0.9,0.2-1.7,0.5-2.1c0.3-0.5,0.7-0.8,1.1-1
		c0.3-0.1,0.9-0.4,1.8-0.8s1.7-0.8,2.5-1.1v10c0,0.8,0.3,1.6,0.9,2.1c0.6,0.6,1.3,0.9,2.2,0.9c0.9,0,1.6-0.3,2.2-0.9
		c0.6-0.6,0.9-1.3,0.9-2.2v-6.4c-0.1-0.7-0.2-1.4-0.4-2.2c-0.2-0.7-0.4-1.5-0.7-2.4c-0.3-0.9-0.8-2-1.4-3.1l-7-13.1
		c-0.5-1.1-0.9-2.1-1.3-3.1c-0.3-0.9-0.6-1.9-0.9-2.9c-0.3-1.1-0.4-2.1-0.4-3V7.5c0-1,0.2-2,0.6-2.8c0.4-0.9,0.9-1.7,1.5-2.4
		c0.6-0.7,1.4-1.3,2.3-1.7c0.9-0.4,1.8-0.6,2.8-0.6h3.7c0.9,0,1.8,0.2,2.7,0.6c0.9,0.4,1.6,1,2.2,1.7c0.6,0.7,1.1,1.5,1.5,2.4
		c0.4,0.9,0.6,1.9,0.6,2.8v2.2c0,0.9-0.2,1.7-0.5,2.1C256.2,12.3,255.9,12.7,255.5,12.9z"/>
	<path id="XMLID_66_" fill="#27282E" d="M289.2,50.7c0,2-0.7,3.6-2,5c-1.4,1.4-3,2.1-5,2.3h-3.7c-2,0-3.7-0.7-5.1-2.1
		c-1.4-1.4-2.1-3.1-2.1-5.1V29v-0.1V7.3c0-2,0.7-3.7,2.1-5.1c1.4-1.4,3.1-2.1,5.1-2.1h3.7c1.9,0.1,3.6,0.9,5,2.3c1.4,1.4,2,3.1,2,5
		v8.6c0,0.9-0.2,1.7-0.5,2.1c-0.3,0.5-0.7,0.8-1.1,1c-0.3,0.1-0.9,0.4-1.8,0.8c-0.9,0.4-1.7,0.8-2.5,1.1V8.2c0-0.8-0.3-1.5-0.9-2
		c-0.6-0.5-1.3-0.8-2.2-0.8c-0.9,0-1.6,0.3-2.2,0.8c-0.6,0.5-0.9,1.2-0.9,2v20.7V29v20.7c0,0.8,0.3,1.6,0.9,2.2
		c0.6,0.6,1.3,0.9,2.2,0.9c0.8,0,1.6-0.3,2.2-0.9c0.6-0.6,0.9-1.3,0.9-2.2V42c0-0.9,0.2-1.7,0.5-2.1c0.3-0.5,0.7-0.8,1.1-1
		c0.3-0.1,0.9-0.4,1.8-0.8s1.7-0.8,2.5-1.1V50.7z"/>
	<path id="XMLID_68_" fill="#27282E" d="M322.2,1.1c0.3,0.5,0.5,1,0.5,1.5v54.9h-5.9V32.6c-0.1-0.8-0.6-1.3-1.4-1.3H309v26.2h-5.9
		V2.6c0-0.5,0.2-1,0.5-1.5c0.3-0.5,0.9-0.8,1.8-0.8h3.5v23.1c0,0.8,0.2,1.4,0.5,1.7c0.3,0.3,0.8,0.4,1.5,0.4h5.8V0.3h3.5
		C321.2,0.3,321.8,0.6,322.2,1.1z"/>
	<path id="XMLID_70_" fill="#27282E" d="M359.2,57.5h-6.4l-5.1-39.5l-5.2,39.5h-6.4l8.7-57.2h3.1c1.3,0,2.1,0.3,2.5,1
		c0.4,0.6,0.6,1.4,0.7,2.1L359.2,57.5z"/>
	<path id="XMLID_72_" fill="#27282E" d="M390.4,57.5h-5.9V36.6c0-1.4-0.3-2.4-0.9-2.9c-0.6-0.5-1.3-0.8-2.2-0.8h-3.1v24.6h-5.9V0.3
		h10.7c1,0,1.9,0.2,2.8,0.5c0.9,0.4,1.7,0.9,2.3,1.5c0.6,0.6,1.2,1.4,1.5,2.3c0.4,0.9,0.6,1.8,0.6,2.8v17.7c0,1.1-0.1,2-0.4,2.7
		c-0.2,0.7-0.5,1.2-0.8,1.5c-0.3,0.4-0.7,0.7-1.1,0.8c0.4,0.2,0.7,0.6,1.1,1.1c0.3,0.4,0.5,1,0.8,1.7c0.2,0.7,0.4,1.6,0.4,2.6V57.5z
		 M383.6,26.8c0.6-0.5,0.9-1.4,0.9-2.6v-15c0-1.1-0.3-1.9-0.9-2.3c-0.6-0.4-1.3-0.6-2.2-0.6h-3.1v21.3h3.1
		C382.3,27.5,383,27.3,383.6,26.8z"/>
	<path id="XMLID_75_" fill="#27282E" d="M426,51.7c-0.3,0.8-0.6,1.6-1,2.5c-0.4,0.9-0.7,1.5-0.8,1.8c-0.2,0.4-0.6,0.8-1,1.1
		c-0.5,0.3-1.2,0.5-2.1,0.5h-14V0.3h4.1c0.5,0,0.9,0.2,1.3,0.5c0.3,0.3,0.5,0.8,0.5,1.3v49.6H426z"/>
</g>
<g id="XMLID_144_" display="none">
	<path id="XMLID_51_" display="inline" fill="#27282E" d="M20.4,71c-0.1,0.1-0.4,0.2-0.8,0.4c-0.4,0.2-0.8,0.4-1.2,0.5v-3.1
		c0-0.4-0.1-0.8-0.4-1.1c-0.3-0.3-0.7-0.4-1.1-0.4c-0.4,0-0.7,0.1-1,0.4c-0.3,0.3-0.4,0.7-0.4,1.1v2.6c0,0.3,0.1,0.7,0.2,1
		c0.1,0.3,0.2,0.7,0.4,1.2c0.2,0.5,0.4,0.9,0.7,1.5l3.3,6.3c0.2,0.5,0.4,1,0.6,1.5c0.2,0.4,0.3,0.9,0.4,1.4c0.1,0.5,0.2,1,0.2,1.4
		v3.5c0,1-0.3,1.8-1,2.5c-0.7,0.7-1.5,1-2.5,1h-1.8c-0.9-0.1-1.7-0.4-2.4-1.1c-0.7-0.7-1-1.5-1-2.4v-2.8c0-0.5,0.1-0.8,0.2-1
		c0.2-0.2,0.3-0.4,0.5-0.5c0.1-0.1,0.4-0.2,0.8-0.4c0.4-0.2,0.8-0.4,1.2-0.5v4.8c0,0.4,0.1,0.7,0.4,1c0.3,0.3,0.6,0.4,1,0.4
		c0.4,0,0.8-0.1,1.1-0.4c0.3-0.3,0.4-0.6,0.4-1.1v-3.1c0-0.3-0.1-0.7-0.2-1c-0.1-0.3-0.2-0.7-0.3-1.2c-0.1-0.5-0.4-1-0.7-1.5
		l-3.4-6.3c-0.2-0.5-0.4-1-0.6-1.5c-0.2-0.4-0.3-0.9-0.4-1.4c-0.1-0.5-0.2-1-0.2-1.4v-2.8c0-0.5,0.1-0.9,0.3-1.4
		c0.2-0.4,0.4-0.8,0.7-1.1c0.3-0.3,0.7-0.6,1.1-0.8c0.4-0.2,0.9-0.3,1.4-0.3h1.8c0.5,0,0.9,0.1,1.3,0.3c0.4,0.2,0.8,0.5,1.1,0.8
		c0.3,0.3,0.5,0.7,0.7,1.2c0.2,0.4,0.3,0.9,0.3,1.3v1c0,0.5-0.1,0.8-0.2,1C20.8,70.8,20.6,70.9,20.4,71z"/>
	<path id="XMLID_3_" display="inline" fill="#27282E" d="M28.4,89.6h5.9c0.2,0,0.3,0.1,0.2,0.3c-0.1,0.2-0.2,0.4-0.3,0.7
		c-0.1,0.3-0.3,0.5-0.5,0.7c-0.2,0.2-0.3,0.3-0.3,0.4c-0.1,0.2-0.2,0.4-0.5,0.5c-0.2,0.2-0.6,0.2-1,0.2h-6.3V65.8
		c0-0.2,0.1-0.4,0.3-0.6c0.2-0.1,0.4-0.2,0.6-0.2h7.3c0.2,0,0.3,0.1,0.2,0.3c-0.1,0.2-0.2,0.4-0.3,0.7c-0.1,0.2-0.3,0.5-0.5,0.7
		C33,66.9,32.9,67,32.8,67c-0.1,0.2-0.2,0.4-0.5,0.5c-0.2,0.2-0.6,0.3-1,0.3h-2.3c-0.2,0-0.3,0.1-0.5,0.2c-0.1,0.1-0.2,0.3-0.2,0.5
		v8.2h4.3c0.2,0,0.3,0.1,0.2,0.3c0,0.2-0.1,0.4-0.3,0.7c-0.1,0.2-0.3,0.5-0.5,0.7c-0.2,0.2-0.3,0.3-0.4,0.4
		c-0.1,0.2-0.2,0.4-0.5,0.6c-0.2,0.2-0.6,0.2-1,0.2l-1.2,0c-0.2,0-0.3,0.1-0.5,0.2s-0.2,0.3-0.2,0.5V89.6z"/>
	<path id="XMLID_10_" display="inline" fill="#27282E" d="M48.1,65v27.4h-1.3c-0.4,0-0.7-0.1-0.9-0.2c-0.2-0.1-0.4-0.3-0.6-0.5
		c-0.1-0.2-0.2-0.4-0.3-0.6c-0.1-0.2-0.1-0.4-0.1-0.5l-3-13.6v15.3H39V65h1.3c0.8,0,1.3,0.2,1.5,0.5c0.2,0.3,0.4,0.7,0.5,1.1l3,14.3
		V65H48.1z"/>
	<path id="XMLID_12_" display="inline" fill="#27282E" d="M56.9,65.4c0.2,0.3,0.2,0.5,0.2,0.7v26.4h-2c-0.3,0-0.5-0.1-0.6-0.2
		c-0.1-0.1-0.2-0.3-0.2-0.4V65H56C56.5,65,56.8,65.1,56.9,65.4z"/>
	<path id="XMLID_14_" display="inline" fill="#27282E" d="M73.1,65.9c0.7,0.7,1,1.5,1,2.4v20.9c0,0.5-0.1,0.9-0.3,1.3
		c-0.2,0.4-0.4,0.8-0.7,1.1c-0.3,0.3-0.7,0.6-1.1,0.7c-0.4,0.2-0.8,0.3-1.3,0.3h-2.2c-1,0-1.8-0.3-2.5-1c-0.7-0.7-1-1.5-1-2.4V68.3
		c0-1,0.3-1.8,1-2.5c0.7-0.7,1.5-1,2.5-1h2.2C71.6,64.9,72.4,65.3,73.1,65.9z M70.8,89.8c0.3-0.3,0.4-0.7,0.4-1.1V68.8
		c0-0.4-0.1-0.8-0.4-1.1c-0.3-0.3-0.7-0.4-1.1-0.4h-0.4c-0.4,0-0.7,0.2-1,0.5c-0.3,0.3-0.4,0.6-0.4,1.1v19.9c0,0.4,0.1,0.8,0.4,1.1
		c0.3,0.3,0.6,0.4,1.1,0.5h0.4C70.2,90.2,70.5,90.1,70.8,89.8z"/>
	<path id="XMLID_17_" display="inline" fill="#27282E" d="M90.6,92.5h-2.8v-10c0-0.7-0.1-1.2-0.4-1.4c-0.3-0.2-0.6-0.4-1-0.4h-1.5
		v11.8H82V65h5.1c0.5,0,0.9,0.1,1.4,0.3c0.4,0.2,0.8,0.4,1.1,0.7c0.3,0.3,0.6,0.7,0.7,1.1c0.2,0.4,0.3,0.9,0.3,1.3v8.5
		c0,0.5-0.1,1-0.2,1.3c-0.1,0.3-0.2,0.6-0.4,0.7c-0.2,0.2-0.3,0.3-0.5,0.4c0.2,0.1,0.4,0.3,0.5,0.5c0.1,0.2,0.3,0.5,0.4,0.8
		c0.1,0.3,0.2,0.8,0.2,1.3V92.5z M87.3,77.7c0.3-0.2,0.4-0.6,0.4-1.3v-7.2c0-0.5-0.1-0.9-0.4-1.1c-0.3-0.2-0.6-0.3-1-0.3h-1.5v10.2
		h1.5C86.7,78.1,87,77.9,87.3,77.7z"/>
</g>
<g id="XMLID_145_">
	<path id="XMLID_20_" fill="#27282E" d="M116.8,65c-0.2,0.3-0.3,0.7-0.5,1.2c-0.2,0.4-0.3,0.7-0.4,0.8c-0.1,0.2-0.3,0.4-0.5,0.5
		c-0.2,0.2-0.5,0.3-1,0.3h-3.1c-0.2,0-0.3,0.1-0.5,0.2c-0.1,0.1-0.2,0.3-0.2,0.5V77l5,0c-0.2,0.4-0.3,0.8-0.5,1.2
		c-0.2,0.4-0.3,0.7-0.4,0.9c-0.1,0.2-0.3,0.4-0.5,0.5c-0.2,0.2-0.6,0.2-1,0.2h-1.9c-0.2,0-0.3,0.1-0.5,0.2c-0.1,0.1-0.2,0.3-0.2,0.5
		v11.1c0,0.2-0.1,0.4-0.2,0.6c-0.2,0.2-0.4,0.2-0.6,0.2h-2V65.8c0-0.2,0.1-0.4,0.3-0.6c0.2-0.2,0.4-0.2,0.6-0.2H116.8z"/>
	<path id="XMLID_22_" fill="#27282E" d="M129.9,65v24.2c0,0.9-0.4,1.7-1,2.4c-0.6,0.7-1.4,1-2.4,1.1h-2.2c-0.5,0-0.9-0.1-1.4-0.3
		c-0.4-0.2-0.8-0.4-1.1-0.7c-0.3-0.3-0.6-0.7-0.7-1.1c-0.2-0.4-0.3-0.9-0.3-1.3V65.8c0-0.2,0.1-0.4,0.3-0.5c0.2-0.1,0.4-0.2,0.6-0.2
		h2v23.7c0,0.4,0.1,0.8,0.4,1c0.3,0.3,0.6,0.4,1,0.4h0.4c0.4,0,0.8-0.1,1.1-0.4c0.3-0.3,0.4-0.6,0.4-1.1V65H129.9z"/>
	<path id="XMLID_24_" fill="#27282E" d="M147,89.6c-0.1,0.4-0.3,0.8-0.5,1.2s-0.3,0.7-0.4,0.8c-0.1,0.2-0.3,0.4-0.5,0.5
		c-0.2,0.2-0.6,0.2-1,0.2h-6.7V65h2c0.2,0,0.4,0.1,0.6,0.2c0.2,0.2,0.2,0.4,0.2,0.6v23.8H147z"/>
	<path id="XMLID_26_" fill="#27282E" d="M159.6,89.6c-0.1,0.4-0.3,0.8-0.5,1.2s-0.3,0.7-0.4,0.8c-0.1,0.2-0.3,0.4-0.5,0.5
		c-0.2,0.2-0.6,0.2-1,0.2h-6.7V65h2c0.2,0,0.4,0.1,0.6,0.2c0.2,0.2,0.2,0.4,0.2,0.6v23.8H159.6z"/>
	<path id="XMLID_28_" fill="#27282E" d="M170,71c-0.1,0.1-0.4,0.2-0.8,0.4c-0.4,0.2-0.8,0.4-1.2,0.5v-3.1c0-0.4-0.1-0.8-0.4-1.1
		c-0.3-0.3-0.7-0.4-1.1-0.4c-0.4,0-0.7,0.1-1,0.4c-0.3,0.3-0.4,0.7-0.4,1.1v2.6c0,0.3,0.1,0.7,0.2,1c0.1,0.3,0.2,0.7,0.4,1.2
		c0.2,0.5,0.4,0.9,0.7,1.5l3.3,6.3c0.2,0.5,0.4,1,0.6,1.5c0.2,0.4,0.3,0.9,0.4,1.4c0.1,0.5,0.2,1,0.2,1.4v3.5c0,1-0.3,1.8-1,2.5
		c-0.7,0.7-1.5,1-2.5,1h-1.8c-0.9-0.1-1.7-0.4-2.4-1.1c-0.7-0.7-1-1.5-1-2.4v-2.8c0-0.5,0.1-0.8,0.2-1c0.2-0.2,0.3-0.4,0.5-0.5
		c0.1-0.1,0.4-0.2,0.8-0.4c0.4-0.2,0.8-0.4,1.2-0.5v4.8c0,0.4,0.1,0.7,0.4,1c0.3,0.3,0.6,0.4,1,0.4c0.4,0,0.8-0.1,1.1-0.4
		c0.3-0.3,0.4-0.6,0.4-1.1v-3.1c0-0.3-0.1-0.7-0.2-1c-0.1-0.3-0.2-0.7-0.3-1.2c-0.1-0.5-0.4-1-0.7-1.5l-3.4-6.3
		c-0.2-0.5-0.4-1-0.6-1.5c-0.2-0.4-0.3-0.9-0.4-1.4c-0.1-0.5-0.2-1-0.2-1.4v-2.8c0-0.5,0.1-0.9,0.3-1.4c0.2-0.4,0.4-0.8,0.7-1.1
		c0.3-0.3,0.7-0.6,1.1-0.8c0.4-0.2,0.9-0.3,1.4-0.3h1.8c0.5,0,0.9,0.1,1.3,0.3c0.4,0.2,0.8,0.5,1.1,0.8c0.3,0.3,0.5,0.7,0.7,1.2
		c0.2,0.4,0.3,0.9,0.3,1.3v1c0,0.5-0.1,0.8-0.2,1C170.3,70.8,170.2,70.9,170,71z"/>
	<path id="XMLID_30_" fill="#27282E" d="M186.7,65c-0.2,0.4-0.3,0.8-0.5,1.2c-0.2,0.4-0.3,0.7-0.4,0.8c-0.1,0.2-0.2,0.4-0.5,0.5
		c-0.2,0.2-0.6,0.2-1,0.2H182c-0.2,0-0.4,0.1-0.5,0.2c-0.1,0.1-0.2,0.3-0.2,0.5v24h-2.2c-0.3,0-0.5-0.1-0.6-0.2
		c-0.1-0.1-0.2-0.3-0.2-0.4v-24h-3.9v-2c0-0.2,0.1-0.4,0.2-0.6c0.2-0.2,0.4-0.2,0.6-0.2H186.7z"/>
	<path id="XMLID_32_" fill="#27282E" d="M199.6,92.5h-3.1L194,73.5l-2.5,18.9h-3.1l4.2-27.4h1.5c0.6,0,1,0.2,1.2,0.5
		c0.2,0.3,0.3,0.6,0.3,1L199.6,92.5z"/>
	<path id="XMLID_34_" fill="#27282E" d="M214.3,89.2c0,0.9-0.3,1.7-1,2.4c-0.7,0.7-1.5,1-2.4,1.1h-1.8c-1,0-1.8-0.3-2.4-1
		c-0.7-0.7-1-1.5-1-2.5V78.8v0V68.3c0-1,0.3-1.8,1-2.5c0.7-0.7,1.5-1,2.4-1h1.8c0.9,0.1,1.7,0.4,2.4,1.1c0.7,0.7,1,1.5,1,2.4v4.1
		c0,0.5-0.1,0.8-0.2,1c-0.2,0.2-0.3,0.4-0.5,0.5c-0.1,0.1-0.4,0.2-0.8,0.4c-0.4,0.2-0.8,0.4-1.2,0.5v-6.1c0-0.4-0.1-0.7-0.4-1
		c-0.3-0.3-0.6-0.4-1-0.4c-0.4,0-0.8,0.1-1.1,0.4c-0.3,0.3-0.4,0.6-0.4,1v9.9v0v10c0,0.4,0.1,0.7,0.4,1c0.3,0.3,0.6,0.4,1.1,0.4
		c0.4,0,0.7-0.1,1-0.4c0.3-0.3,0.4-0.6,0.4-1V85c0-0.5,0.1-0.8,0.2-1c0.2-0.2,0.3-0.4,0.5-0.5c0.1-0.1,0.4-0.2,0.9-0.4
		c0.4-0.2,0.8-0.4,1.2-0.5V89.2z"/>
	<path id="XMLID_36_" fill="#27282E" d="M230.6,92.5h-3l-3.8-12.3v12.3h-2.8V66c0-0.5,0.1-0.7,0.3-0.9c0.2-0.1,0.4-0.2,0.6-0.2h1.9
		v10l3.5-10h2.9l-4.4,12.4L230.6,92.5z"/>
</g>
<g id="XMLID_146_">
	<path id="XMLID_38_" fill="#27282E" d="M261.4,65l-3.3,27.4h-2.6l-1.9-13.9l-1.9,13.9h-2.6L245.6,65h2.2c0.3,0,0.5,0.1,0.6,0.2
		c0.1,0.1,0.2,0.3,0.2,0.4l1.9,15l1.4-9.5c0.1-0.8,0.3-1.4,0.6-1.7c0.3-0.3,0.9-0.5,1.8-0.5h0.3l1.8,11.7l1.8-15
		c0-0.1,0.1-0.2,0.2-0.4c0.1-0.1,0.3-0.2,0.6-0.2H261.4z"/>
	<path id="XMLID_40_" fill="#27282E" d="M271,89.6h5.9c0.2,0,0.3,0.1,0.2,0.3c-0.1,0.2-0.2,0.4-0.3,0.7c-0.1,0.3-0.3,0.5-0.5,0.7
		c-0.2,0.2-0.3,0.3-0.3,0.4c-0.1,0.2-0.2,0.4-0.5,0.5c-0.2,0.2-0.6,0.2-1,0.2h-6.3V65.8c0-0.2,0.1-0.4,0.3-0.6
		c0.2-0.1,0.4-0.2,0.6-0.2h7.3c0.2,0,0.3,0.1,0.2,0.3c-0.1,0.2-0.2,0.4-0.3,0.7c-0.1,0.2-0.3,0.5-0.5,0.7c-0.2,0.2-0.3,0.3-0.3,0.4
		c-0.1,0.2-0.2,0.4-0.5,0.5c-0.2,0.2-0.6,0.3-1,0.3h-2.3c-0.2,0-0.3,0.1-0.5,0.2c-0.1,0.1-0.2,0.3-0.2,0.5v8.2h4.3
		c0.2,0,0.3,0.1,0.2,0.3c0,0.2-0.1,0.4-0.3,0.7c-0.1,0.2-0.3,0.5-0.5,0.7c-0.2,0.2-0.3,0.3-0.4,0.4c-0.1,0.2-0.2,0.4-0.5,0.6
		c-0.2,0.2-0.6,0.2-1,0.2l-1.2,0c-0.2,0-0.3,0.1-0.5,0.2c-0.1,0.1-0.2,0.3-0.2,0.5V89.6z"/>
	<path id="XMLID_42_" fill="#27282E" d="M288.6,78.7c0.3,0.1,0.6,0.3,0.8,0.5c0.2,0.2,0.4,0.4,0.6,0.7c0.2,0.3,0.2,0.6,0.2,1.1v8
		c0,1-0.3,1.8-1,2.4c-0.7,0.7-1.5,1-2.5,1h-5.1V78.8v-0.1v0v0V65h5.1c0.5,0,0.9,0.1,1.4,0.3c0.4,0.2,0.8,0.4,1.1,0.7
		c0.3,0.3,0.6,0.7,0.7,1.1c0.2,0.4,0.3,0.9,0.3,1.3v8.1c0,0.5-0.1,0.8-0.2,1.1c-0.2,0.3-0.3,0.5-0.6,0.7
		C289.1,78.5,288.9,78.6,288.6,78.7z M287.4,69.2c0-0.5-0.1-0.9-0.4-1.1c-0.3-0.2-0.6-0.3-1-0.3h-1.5v9.6h1.5c0.4,0,0.7-0.1,1-0.3
		c0.3-0.2,0.4-0.6,0.4-1.3V69.2z M287.4,81.6c0-0.6-0.1-1-0.4-1.3c-0.3-0.2-0.6-0.3-1-0.3h-1.5v9.6h1.5c0.4,0,0.7-0.1,1-0.3
		c0.3-0.2,0.4-0.6,0.4-1.1V81.6z"/>
	<path id="XMLID_46_" fill="#27282E" d="M307,68.9v19.5c0,2.6-1.3,4-3.9,4H298V65h5.1C305.7,65,307,66.3,307,68.9z M304.2,69.4
		c0-0.6-0.1-1.1-0.4-1.4c-0.3-0.3-0.6-0.4-1.1-0.4h-1.9v22.2h1.9c0.4,0,0.8-0.1,1.1-0.4c0.3-0.3,0.4-0.7,0.4-1.4V69.4z"/>
	<path id="XMLID_49_" fill="#27282E" d="M316,89.6h5.9c0.2,0,0.3,0.1,0.2,0.3c-0.1,0.2-0.2,0.4-0.3,0.7c-0.1,0.3-0.3,0.5-0.5,0.7
		c-0.2,0.2-0.3,0.3-0.3,0.4c-0.1,0.2-0.2,0.4-0.5,0.5c-0.2,0.2-0.6,0.2-1,0.2h-6.3V65.8c0-0.2,0.1-0.4,0.3-0.6
		c0.2-0.1,0.4-0.2,0.6-0.2h7.3c0.2,0,0.3,0.1,0.2,0.3c-0.1,0.2-0.2,0.4-0.3,0.7c-0.1,0.2-0.3,0.5-0.5,0.7c-0.2,0.2-0.3,0.3-0.3,0.4
		c-0.1,0.2-0.2,0.4-0.5,0.5c-0.2,0.2-0.6,0.3-1,0.3h-2.3c-0.2,0-0.3,0.1-0.5,0.2c-0.1,0.1-0.2,0.3-0.2,0.5v8.2h4.3
		c0.2,0,0.3,0.1,0.2,0.3c0,0.2-0.1,0.4-0.3,0.7c-0.1,0.2-0.3,0.5-0.5,0.7c-0.2,0.2-0.3,0.3-0.4,0.4c-0.1,0.2-0.2,0.4-0.5,0.6
		c-0.2,0.2-0.6,0.2-1,0.2l-1.2,0c-0.2,0-0.3,0.1-0.5,0.2S316,80,316,80.1V89.6z"/>
	<path id="XMLID_78_" fill="#27282E" d="M336.1,65l-4.2,27.4h-1.2h-0.2c-0.3,0-0.6-0.1-0.8-0.3c-0.2-0.2-0.4-0.4-0.5-0.6
		c-0.1-0.2-0.2-0.4-0.2-0.7c0-0.2-0.1-0.3-0.1-0.4l-4-25.5h2.2c0.1,0,0.3,0.1,0.4,0.2c0.2,0.1,0.3,0.4,0.4,0.9l2.6,17.2l2.8-18.3
		H336.1z"/>
	<path id="XMLID_80_" fill="#27282E" d="M342.7,89.6h5.9c0.2,0,0.3,0.1,0.2,0.3c-0.1,0.2-0.2,0.4-0.3,0.7c-0.1,0.3-0.3,0.5-0.5,0.7
		c-0.2,0.2-0.3,0.3-0.3,0.4c-0.1,0.2-0.2,0.4-0.5,0.5c-0.2,0.2-0.6,0.2-1,0.2h-6.3V65.8c0-0.2,0.1-0.4,0.3-0.6
		c0.2-0.1,0.4-0.2,0.6-0.2h7.3c0.2,0,0.3,0.1,0.2,0.3c-0.1,0.2-0.2,0.4-0.3,0.7c-0.1,0.2-0.3,0.5-0.5,0.7c-0.2,0.2-0.3,0.3-0.3,0.4
		c-0.1,0.2-0.2,0.4-0.5,0.5c-0.2,0.2-0.6,0.3-1,0.3h-2.3c-0.2,0-0.3,0.1-0.5,0.2c-0.1,0.1-0.2,0.3-0.2,0.5v8.2h4.3
		c0.2,0,0.3,0.1,0.2,0.3c0,0.2-0.1,0.4-0.3,0.7c-0.1,0.2-0.3,0.5-0.5,0.7c-0.2,0.2-0.3,0.3-0.4,0.4c-0.1,0.2-0.2,0.4-0.5,0.6
		c-0.2,0.2-0.6,0.2-1,0.2l-1.2,0c-0.2,0-0.3,0.1-0.5,0.2s-0.2,0.3-0.2,0.5V89.6z"/>
	<path id="XMLID_82_" fill="#27282E" d="M362.5,89.6c-0.1,0.4-0.3,0.8-0.5,1.2c-0.2,0.4-0.3,0.7-0.4,0.8c-0.1,0.2-0.3,0.4-0.5,0.5
		c-0.2,0.2-0.6,0.2-1,0.2h-6.7V65h2c0.2,0,0.4,0.1,0.6,0.2c0.2,0.2,0.2,0.4,0.2,0.6v23.8H362.5z"/>
	<path id="XMLID_84_" fill="#27282E" d="M373.9,65.9c0.7,0.7,1,1.5,1,2.4v20.9c0,0.5-0.1,0.9-0.3,1.3c-0.2,0.4-0.4,0.8-0.7,1.1
		c-0.3,0.3-0.7,0.6-1.1,0.7s-0.8,0.3-1.3,0.3h-2.2c-1,0-1.8-0.3-2.5-1c-0.7-0.7-1-1.5-1-2.4V68.3c0-1,0.3-1.8,1-2.5
		c0.7-0.7,1.5-1,2.5-1h2.2C372.4,64.9,373.2,65.3,373.9,65.9z M371.6,89.8c0.3-0.3,0.4-0.7,0.4-1.1V68.8c0-0.4-0.1-0.8-0.4-1.1
		c-0.3-0.3-0.7-0.4-1.1-0.4h-0.4c-0.4,0-0.7,0.2-1,0.5c-0.3,0.3-0.4,0.6-0.4,1.1v19.9c0,0.4,0.1,0.8,0.4,1.1
		c0.3,0.3,0.6,0.4,1.1,0.5h0.4C371,90.2,371.3,90.1,371.6,89.8z"/>
	<path id="XMLID_87_" fill="#27282E" d="M387.4,65.3c0.4,0.2,0.8,0.4,1.1,0.7s0.6,0.7,0.8,1.1c0.2,0.4,0.3,0.9,0.3,1.3v7.1
		c0,1.3-0.3,2.4-1,3.3c-0.7,0.9-1.7,1.3-3,1.3h-1.6v12.3h-2c-0.3,0-0.6-0.1-0.7-0.2c-0.1-0.1-0.1-0.3-0.1-0.4V65h4.9
		C386.5,65,386.9,65.1,387.4,65.3z M386.9,69c-0.1-0.4-0.2-0.7-0.5-1c-0.3-0.3-0.6-0.4-1-0.4h-1.5v9.7h1.5c0.4,0,0.7-0.1,1-0.4
		c0.3-0.3,0.4-0.6,0.5-0.9V69z"/>
	<path id="XMLID_90_" fill="#27282E" d="M397.4,89.6h5.9c0.2,0,0.3,0.1,0.2,0.3c-0.1,0.2-0.2,0.4-0.3,0.7c-0.1,0.3-0.3,0.5-0.5,0.7
		c-0.2,0.2-0.3,0.3-0.3,0.4c-0.1,0.2-0.2,0.4-0.5,0.5c-0.2,0.2-0.6,0.2-1,0.2h-6.3V65.8c0-0.2,0.1-0.4,0.3-0.6
		c0.2-0.1,0.4-0.2,0.6-0.2h7.3c0.2,0,0.3,0.1,0.2,0.3c-0.1,0.2-0.2,0.4-0.3,0.7c-0.1,0.2-0.3,0.5-0.5,0.7c-0.2,0.2-0.3,0.3-0.3,0.4
		c-0.1,0.2-0.2,0.4-0.5,0.5c-0.2,0.2-0.6,0.3-1,0.3h-2.3c-0.2,0-0.3,0.1-0.5,0.2c-0.1,0.1-0.2,0.3-0.2,0.5v8.2h4.3
		c0.2,0,0.3,0.1,0.2,0.3c0,0.2-0.1,0.4-0.3,0.7c-0.1,0.2-0.3,0.5-0.5,0.7c-0.2,0.2-0.3,0.3-0.4,0.4c-0.1,0.2-0.2,0.4-0.5,0.6
		c-0.2,0.2-0.6,0.2-1,0.2l-1.2,0c-0.2,0-0.3,0.1-0.5,0.2s-0.2,0.3-0.2,0.5V89.6z"/>
	<path id="XMLID_92_" fill="#27282E" d="M415,92.5h-2.8v-10c0-0.7-0.1-1.2-0.4-1.4c-0.3-0.2-0.6-0.4-1-0.4h-1.5v11.8h-2.8V65h5.1
		c0.5,0,0.9,0.1,1.4,0.3c0.4,0.2,0.8,0.4,1.1,0.7c0.3,0.3,0.6,0.7,0.7,1.1c0.2,0.4,0.3,0.9,0.3,1.3v8.5c0,0.5-0.1,1-0.2,1.3
		c-0.1,0.3-0.2,0.6-0.4,0.7c-0.2,0.2-0.3,0.3-0.5,0.4c0.2,0.1,0.4,0.3,0.5,0.5c0.1,0.2,0.3,0.5,0.4,0.8c0.1,0.3,0.2,0.8,0.2,1.3
		V92.5z M411.7,77.7c0.3-0.2,0.4-0.6,0.4-1.3v-7.2c0-0.5-0.1-0.9-0.4-1.1c-0.3-0.2-0.6-0.3-1-0.3h-1.5v10.2h1.5
		C411.1,78.1,411.4,77.9,411.7,77.7z"/>
</g>
</svg>
