<?xml version="1.0" encoding="UTF-8" standalone="no"?>
<svg width="2560px" height="600px" viewBox="0 0 2560 600" version="1.1" xmlns="http://www.w3.org/2000/svg" xmlns:xlink="http://www.w3.org/1999/xlink" xmlns:sketch="http://www.bohemiancoding.com/sketch/ns">
    <!-- Generator: Sketch 3.1.1 (8761) - http://www.bohemiancoding.com/sketch -->
    <title>Artboard 8</title>
    <desc>Created with Sketch.</desc>
    <defs>
        <filter x="-50%" y="-50%" width="200%" height="200%" filterUnits="objectBoundingBox" id="filter-1">
            <feMorphology radius="2" in="SourceAlpha" operator="dilate" result="shadowSpreadOuter1"></feMorphology>
            <feOffset dx="0" dy="0" in="shadowSpreadOuter1" result="shadowOffsetOuter1"></feOffset>
            <feGaussianBlur stdDeviation="0" in="shadowOffsetOuter1" result="shadowBlurOuter1"></feGaussianBlur>
            <feColorMatrix values="0 0 0 0 0.937254902   0 0 0 0 0.937254902   0 0 0 0 0.937254902  0 0 0 0.35 0" in="shadowBlurOuter1" type="matrix" result="shadowMatrixOuter1"></feColorMatrix>
            <feMorphology radius="5" in="SourceAlpha" operator="dilate" result="shadowSpreadInner1"></feMorphology>
            <feOffset dx="0" dy="0" in="shadowSpreadInner1" result="shadowOffsetInner1"></feOffset>
            <feGaussianBlur stdDeviation="0" in="shadowOffsetInner1" result="shadowBlurInner1"></feGaussianBlur>
            <feComposite in="shadowBlurInner1" in2="SourceAlpha" operator="arithmetic" k2="-1" k3="1" result="shadowInnerInner1"></feComposite>
            <feColorMatrix values="0 0 0 0 1   0 0 0 0 1   0 0 0 0 1  0 0 0 0.7 0" in="shadowInnerInner1" type="matrix" result="shadowMatrixInner1"></feColorMatrix>
            <feMerge>
                <feMergeNode in="shadowMatrixOuter1"></feMergeNode>
                <feMergeNode in="SourceGraphic"></feMergeNode>
                <feMergeNode in="shadowMatrixInner1"></feMergeNode>
            </feMerge>
        </filter>
        <filter x="-50%" y="-50%" width="200%" height="200%" filterUnits="objectBoundingBox" id="filter-2">
            <feMorphology radius="2" in="SourceAlpha" operator="dilate" result="shadowSpreadOuter1"></feMorphology>
            <feOffset dx="0" dy="0" in="shadowSpreadOuter1" result="shadowOffsetOuter1"></feOffset>
            <feGaussianBlur stdDeviation="0" in="shadowOffsetOuter1" result="shadowBlurOuter1"></feGaussianBlur>
            <feColorMatrix values="0 0 0 0 0.937254902   0 0 0 0 0.937254902   0 0 0 0 0.937254902  0 0 0 0.35 0" in="shadowBlurOuter1" type="matrix" result="shadowMatrixOuter1"></feColorMatrix>
            <feMorphology radius="5" in="SourceAlpha" operator="dilate" result="shadowSpreadInner1"></feMorphology>
            <feOffset dx="0" dy="0" in="shadowSpreadInner1" result="shadowOffsetInner1"></feOffset>
            <feGaussianBlur stdDeviation="0" in="shadowOffsetInner1" result="shadowBlurInner1"></feGaussianBlur>
            <feComposite in="shadowBlurInner1" in2="SourceAlpha" operator="arithmetic" k2="-1" k3="1" result="shadowInnerInner1"></feComposite>
            <feColorMatrix values="0 0 0 0 1   0 0 0 0 1   0 0 0 0 1  0 0 0 0.7 0" in="shadowInnerInner1" type="matrix" result="shadowMatrixInner1"></feColorMatrix>
            <feMerge>
                <feMergeNode in="shadowMatrixOuter1"></feMergeNode>
                <feMergeNode in="SourceGraphic"></feMergeNode>
                <feMergeNode in="shadowMatrixInner1"></feMergeNode>
            </feMerge>
        </filter>
        <filter x="-50%" y="-50%" width="200%" height="200%" filterUnits="objectBoundingBox" id="filter-3">
            <feMorphology radius="3" in="SourceAlpha" operator="dilate" result="shadowSpreadOuter1"></feMorphology>
            <feOffset dx="0" dy="0" in="shadowSpreadOuter1" result="shadowOffsetOuter1"></feOffset>
            <feGaussianBlur stdDeviation="0" in="shadowOffsetOuter1" result="shadowBlurOuter1"></feGaussianBlur>
            <feColorMatrix values="0 0 0 0 0.937254902   0 0 0 0 0.937254902   0 0 0 0 0.937254902  0 0 0 0.35 0" in="shadowBlurOuter1" type="matrix" result="shadowMatrixOuter1"></feColorMatrix>
            <feMorphology radius="5" in="SourceAlpha" operator="dilate" result="shadowSpreadInner1"></feMorphology>
            <feOffset dx="0" dy="0" in="shadowSpreadInner1" result="shadowOffsetInner1"></feOffset>
            <feGaussianBlur stdDeviation="0" in="shadowOffsetInner1" result="shadowBlurInner1"></feGaussianBlur>
            <feComposite in="shadowBlurInner1" in2="SourceAlpha" operator="arithmetic" k2="-1" k3="1" result="shadowInnerInner1"></feComposite>
            <feColorMatrix values="0 0 0 0 1   0 0 0 0 1   0 0 0 0 1  0 0 0 0.7 0" in="shadowInnerInner1" type="matrix" result="shadowMatrixInner1"></feColorMatrix>
            <feMerge>
                <feMergeNode in="shadowMatrixOuter1"></feMergeNode>
                <feMergeNode in="SourceGraphic"></feMergeNode>
                <feMergeNode in="shadowMatrixInner1"></feMergeNode>
            </feMerge>
        </filter>
        <filter x="-50%" y="-50%" width="200%" height="200%" filterUnits="objectBoundingBox" id="filter-4">
            <feMorphology radius="4" in="SourceAlpha" operator="dilate" result="shadowSpreadOuter1"></feMorphology>
            <feOffset dx="0" dy="0" in="shadowSpreadOuter1" result="shadowOffsetOuter1"></feOffset>
            <feGaussianBlur stdDeviation="0" in="shadowOffsetOuter1" result="shadowBlurOuter1"></feGaussianBlur>
            <feColorMatrix values="0 0 0 0 0.937254902   0 0 0 0 0.937254902   0 0 0 0 0.937254902  0 0 0 0.35 0" in="shadowBlurOuter1" type="matrix" result="shadowMatrixOuter1"></feColorMatrix>
            <feMorphology radius="5" in="SourceAlpha" operator="dilate" result="shadowSpreadInner1"></feMorphology>
            <feOffset dx="0" dy="0" in="shadowSpreadInner1" result="shadowOffsetInner1"></feOffset>
            <feGaussianBlur stdDeviation="0" in="shadowOffsetInner1" result="shadowBlurInner1"></feGaussianBlur>
            <feComposite in="shadowBlurInner1" in2="SourceAlpha" operator="arithmetic" k2="-1" k3="1" result="shadowInnerInner1"></feComposite>
            <feColorMatrix values="0 0 0 0 1   0 0 0 0 1   0 0 0 0 1  0 0 0 0.7 0" in="shadowInnerInner1" type="matrix" result="shadowMatrixInner1"></feColorMatrix>
            <feMerge>
                <feMergeNode in="shadowMatrixOuter1"></feMergeNode>
                <feMergeNode in="SourceGraphic"></feMergeNode>
                <feMergeNode in="shadowMatrixInner1"></feMergeNode>
            </feMerge>
        </filter>
        <filter x="-50%" y="-50%" width="200%" height="200%" filterUnits="objectBoundingBox" id="filter-5">
            <feMorphology radius="4" in="SourceAlpha" operator="dilate" result="shadowSpreadOuter1"></feMorphology>
            <feOffset dx="0" dy="0" in="shadowSpreadOuter1" result="shadowOffsetOuter1"></feOffset>
            <feGaussianBlur stdDeviation="0" in="shadowOffsetOuter1" result="shadowBlurOuter1"></feGaussianBlur>
            <feColorMatrix values="0 0 0 0 0.937254902   0 0 0 0 0.937254902   0 0 0 0 0.937254902  0 0 0 0.211755548 0" in="shadowBlurOuter1" type="matrix" result="shadowMatrixOuter1"></feColorMatrix>
            <feMorphology radius="5" in="SourceAlpha" operator="dilate" result="shadowSpreadInner1"></feMorphology>
            <feOffset dx="0" dy="0" in="shadowSpreadInner1" result="shadowOffsetInner1"></feOffset>
            <feGaussianBlur stdDeviation="0" in="shadowOffsetInner1" result="shadowBlurInner1"></feGaussianBlur>
            <feComposite in="shadowBlurInner1" in2="SourceAlpha" operator="arithmetic" k2="-1" k3="1" result="shadowInnerInner1"></feComposite>
            <feColorMatrix values="0 0 0 0 1   0 0 0 0 1   0 0 0 0 1  0 0 0 0.7 0" in="shadowInnerInner1" type="matrix" result="shadowMatrixInner1"></feColorMatrix>
            <feMerge>
                <feMergeNode in="shadowMatrixOuter1"></feMergeNode>
                <feMergeNode in="SourceGraphic"></feMergeNode>
                <feMergeNode in="shadowMatrixInner1"></feMergeNode>
            </feMerge>
        </filter>
        <filter x="-50%" y="-50%" width="200%" height="200%" filterUnits="objectBoundingBox" id="filter-6">
            <feMorphology radius="5" in="SourceAlpha" operator="dilate" result="shadowSpreadOuter1"></feMorphology>
            <feOffset dx="0" dy="0" in="shadowSpreadOuter1" result="shadowOffsetOuter1"></feOffset>
            <feGaussianBlur stdDeviation="0" in="shadowOffsetOuter1" result="shadowBlurOuter1"></feGaussianBlur>
            <feColorMatrix values="0 0 0 0 0.937254902   0 0 0 0 0.937254902   0 0 0 0 0.937254902  0 0 0 0.35 0" in="shadowBlurOuter1" type="matrix" result="shadowMatrixOuter1"></feColorMatrix>
            <feMorphology radius="5" in="SourceAlpha" operator="dilate" result="shadowSpreadInner1"></feMorphology>
            <feOffset dx="0" dy="0" in="shadowSpreadInner1" result="shadowOffsetInner1"></feOffset>
            <feGaussianBlur stdDeviation="0" in="shadowOffsetInner1" result="shadowBlurInner1"></feGaussianBlur>
            <feComposite in="shadowBlurInner1" in2="SourceAlpha" operator="arithmetic" k2="-1" k3="1" result="shadowInnerInner1"></feComposite>
            <feColorMatrix values="0 0 0 0 1   0 0 0 0 1   0 0 0 0 1  0 0 0 0.7 0" in="shadowInnerInner1" type="matrix" result="shadowMatrixInner1"></feColorMatrix>
            <feMerge>
                <feMergeNode in="shadowMatrixOuter1"></feMergeNode>
                <feMergeNode in="SourceGraphic"></feMergeNode>
                <feMergeNode in="shadowMatrixInner1"></feMergeNode>
            </feMerge>
        </filter>
    </defs>
    <g id="Page-1" stroke="none" stroke-width="1" fill="none" fill-rule="evenodd" sketch:type="MSPage">
        <g id="Artboard-8" sketch:type="MSArtboardGroup">
            <g id="Group" sketch:type="MSLayerGroup" transform="translate(-27.000000, -43.000000)">
                <path d="M0,575.000007 L810.5,308.500007 L995.5,413.500007 L981.5,247.500007 L1176.5,36.4999997 C1176.5,36.4999997 993.5,4.5 1072.5,36.5" id="Path-322" stroke="#EFEFEF" sketch:type="MSShapeGroup"></path>
                <circle id="Oval-60" stroke="#EFEFEF" fill="#FFFFFF" filter="url(#filter-1)" sketch:type="MSShapeGroup" cx="982" cy="246" r="11.5"></circle>
                <path d="M1436.5,493.999987 L2250,295.499987 L2484,466.499987 L2444,228.500003 L2647,17.5000006 C2647,17.5000006 2412,-18.5 2491,13.5" id="Path-323" stroke="#EFEFEF" sketch:type="MSShapeGroup" transform="translate(2041.750000, 247.122775) scale(-1, 1) translate(-2041.750000, -247.122775) "></path>
                <g id="Oval-60-+-sign_dollar-6" transform="translate(1599.000000, 467.000000) scale(-1, 1) translate(-1599.000000, -467.000000) translate(1581.000000, 449.000000)" stroke="#EFEFEF" filter="url(#filter-2)" fill="#FFFFFF" sketch:type="MSShapeGroup">
                    <circle id="Oval-60" cx="17.75" cy="17.75" r="17.75"></circle>
                </g>
                <g id="Oval-60-+-sign_dollar-3-+-money_bundle_2" transform="translate(784.500000, 280.500000)" sketch:type="MSShapeGroup">
                    <g id="Oval-60-+-sign_dollar-3" fill="#FFFFFF">
                        <circle id="Oval-60" stroke="#EFEFEF" filter="url(#filter-3)" cx="28.5" cy="28.5" r="28.5"></circle>
                        <g id="sign_dollar" transform="translate(20.266667, 15.200000)">
                            <path d="M11.80945,5.6107 C12.8288,6.36215 13.35225,7.2903 13.35225,8.246 L15.4413,8.246 C15.4413,6.4847 14.459,4.9533 13.0435,3.92445 C11.86645,3.06565 10.36925,2.5099 8.7191,2.34175 L8.7191,-0.0608 L6.62815,-0.0608 L6.62815,2.3408 C4.97705,2.50895 3.47985,3.0647 2.30185,3.9235 C0.8873,4.95235 -0.09595,6.48375 -0.09595,8.24505 C-0.1368,10.4272 1.03645,12.0118 2.5384,12.806 C3.77435,13.48525 5.21075,13.83295 6.6272,14.11415 L6.6272,21.98775 C5.4055,21.8291 4.32725,21.4016 3.53495,20.81925 C2.51655,20.0678 1.9931,19.1387 1.9931,18.18395 L-0.0969,18.18395 C-0.0969,19.94525 0.88635,21.47855 2.3009,22.5055 C3.47795,23.3643 4.9761,23.92005 6.6272,24.0882 L6.6272,26.6 L8.71815,26.6 L8.71815,24.0882 C10.3683,23.92005 11.8655,23.3643 13.04255,22.5055 C14.4571,21.47665 15.44035,19.94525 15.44035,18.18395 C15.4812,16.0227 14.2994,14.4552 12.79935,13.6762 C11.5653,13.0112 10.13175,12.67015 8.71815,12.39085 L8.71815,4.44125 C9.9408,4.6018 11.01905,5.0293 11.80945,5.6107 L11.80945,5.6107 Z M9.8762,14.79245 C10.99055,15.0822 11.90255,15.4679 12.46305,15.97235 C13.01595,16.48345 13.33515,17.0525 13.35225,18.18395 C13.35225,19.1387 12.8288,20.06685 11.80945,20.81925 C11.02,21.4016 9.9408,21.83005 8.72005,21.98775 L8.72005,14.5236 C9.11715,14.60625 9.5076,14.69175 9.8762,14.79245 L9.8762,14.79245 Z M5.4739,11.70875 C4.3624,11.41615 3.45325,11.02475 2.89085,10.50985 C2.33605,9.98925 2.01115,9.40025 1.995,8.24505 C1.995,7.2903 2.51845,6.3631 3.53685,5.60975 C4.32915,5.02835 5.40645,4.60085 6.6291,4.44125 L6.6291,11.98045 C6.23105,11.89685 5.84155,11.8104 5.4739,11.70875 L5.4739,11.70875 Z" id="Shape"></path>
                        </g>
                    </g>
                    <g id="money_bundle_2" transform="translate(12.666667, 16.466667)" fill="#C8F0CD">
                        <path d="M24.4607407,0.484110256 L24.4607407,0.419315385 L0.1425,0.419315385 L0.1425,16.6902333 L0.299953704,16.6902333 L0.239259259,16.7541026 L6.98953704,23.9019026 L31.5540741,23.9019026 L31.5540741,7.91608205 L24.4607407,0.484110256 L24.4607407,0.484110256 Z M26.0722222,5.04752051 L26.0722222,18.2601205 L18.5478704,18.2601205 L17.0533796,16.6902333 L24.4598611,16.6902333 L24.4598611,3.35915128 L26.0722222,5.04752051 L26.0722222,5.04752051 Z M16.6953704,21.8664179 L10.5845833,15.1934718 L10.5845833,2.45665128 L13.6817593,2.45665128 L13.6817593,16.0274744 L19.2418981,21.8664179 L16.6953704,21.8664179 L16.6953704,21.8664179 Z M22.5255556,14.6538231 L15.6160648,14.6538231 L15.6160648,2.45665128 L22.5255556,2.45665128 L22.5255556,14.6538231 L22.5255556,14.6538231 Z M2.07680556,2.45665128 L8.64939815,2.45665128 L8.64939815,14.6538231 L2.07680556,14.6538231 L2.07680556,2.45665128 L2.07680556,2.45665128 Z M9.26865741,16.691159 L10.7059722,18.2610462 L4.38935185,18.2610462 L2.90717593,16.691159 L9.26865741,16.691159 L9.26865741,16.691159 Z M6.31310185,20.2974564 L12.5716667,20.2974564 L14.0089815,21.8664179 L7.79527778,21.8664179 L6.31310185,20.2974564 L6.31310185,20.2974564 Z M29.6188889,21.8664179 L21.9819444,21.8664179 L20.4883333,20.2974564 L28.0091667,20.2974564 L28.0091667,7.0756 L29.6197685,8.76304359 L29.6197685,21.8664179 L29.6188889,21.8664179 Z" id="Shape"></path>
                    </g>
                </g>
                <g id="Oval-57-+-sign_euro-7-+-credit_card" transform="translate(1613.500000, 205.500000)" sketch:type="MSShapeGroup">
                    <g id="Oval-57-+-sign_euro-7" transform="translate(24.500000, 24.500000) scale(-1, 1) translate(-24.500000, -24.500000) " stroke="#EFEFEF" filter="url(#filter-4)" fill="#FFFFFF">
                        <circle id="Oval-57" cx="24.5" cy="24.5" r="24.5"></circle>
                    </g>
                    <g id="credit_card" transform="translate(10.796610, 14.949153)" fill="#F0C8DF">
                        <path d="M17.7389228,8.79909887 L18.5502373,8.79909887 L23.3044369,8.79909887 L23.3044369,3.05966243 L17.7389228,3.05966243 L17.7389228,8.79909887 L17.7389228,8.79909887 Z M19.3615518,4.73299859 L21.6810697,4.73299859 L21.6810697,7.12500141 L19.3615518,7.12500141 L19.3615518,4.73299859 L19.3615518,4.73299859 Z M23.1139736,-0.199460452 L3.22680226,-0.199460452 C1.36055744,-0.196415254 -0.154290019,1.36500989 -0.157242938,3.29033616 L-0.157242938,15.1095099 C-0.153551789,17.0340749 1.36055744,18.5955 3.22680226,18.5993065 L23.1147119,18.5993065 C24.9809567,18.5955 26.4958041,17.0340749 26.4987571,15.1095099 L26.4987571,3.29033616 C26.4950659,1.36577119 24.9802185,-0.196415254 23.1139736,-0.199460452 L23.1139736,-0.199460452 Z M24.8739134,15.1102712 C24.8724369,16.1030056 24.0766252,16.9236864 23.1139736,16.925209 L3.22680226,16.925209 C2.26415066,16.9236864 1.46833898,16.1030056 1.46686252,15.1102712 L1.46686252,3.29033616 C1.46833898,2.29760169 2.26415066,1.4769209 3.22680226,1.47539831 L23.1147119,1.47539831 C24.0773635,1.4769209 24.8731751,2.29760169 24.8746516,3.29033616 L24.8746516,15.1102712 L24.8739134,15.1102712 Z M8.43501318,15.0851483 L10.0583804,15.0851483 L10.0583804,13.4102895 L8.43501318,13.4102895 L8.43501318,15.0851483 L8.43501318,15.0851483 Z M5.83570621,15.0851483 L7.45907345,15.0851483 L7.45907345,13.4102895 L5.83570621,13.4102895 L5.83570621,15.0851483 L5.83570621,15.0851483 Z M3.23713748,15.0851483 L4.86124294,15.0851483 L4.86124294,13.4102895 L3.23713748,13.4102895 L3.23713748,15.0851483 L3.23713748,15.0851483 Z M11.0328437,15.0851483 L12.6569492,15.0851483 L12.6569492,13.4102895 L11.0328437,13.4102895 L11.0328437,15.0851483 L11.0328437,15.0851483 Z M6.94526554,10.3963051 L3.23713748,10.3963051 L3.23713748,12.0711638 L6.94452731,12.0711638 L6.94452731,10.3963051 L6.94526554,10.3963051 Z M12.3815895,10.3963051 L8.67346139,10.3963051 L8.67346139,12.0711638 L12.3815895,12.0711638 L12.3815895,10.3963051 L12.3815895,10.3963051 Z M14.1097853,12.0711638 L17.8179134,12.0711638 L17.8179134,10.3963051 L14.1097853,10.3963051 L14.1097853,12.0711638 L14.1097853,12.0711638 Z M19.5461092,12.0711638 L23.2542373,12.0711638 L23.2542373,10.3963051 L19.5461092,10.3963051 L19.5461092,12.0711638 L19.5461092,12.0711638 Z" id="Shape"></path>
                    </g>
                </g>
                <g id="safe" transform="translate(1591.500000, 458.500000)" fill="#FBE6C3" sketch:type="MSShapeGroup">
                    <path d="M14.0288889,-0.0302222222 L2.01333333,-0.0302222222 C0.920444444,-0.0288888889 0.0355555556,0.856888889 0.0342222222,1.94933333 L0.0342222222,13.9688889 C0.0368888889,15.064 0.926222222,15.9457778 2.01333333,15.948 L14.0288889,15.948 C15.1182222,15.9444444 16.004,15.06 16.0075556,13.9688889 L16.0075556,1.94888889 C16.0057778,0.860888889 15.1235556,-0.0275555556 14.0288889,-0.0302222222 L14.0288889,-0.0302222222 Z M15.0306667,13.9688889 C15.0293333,14.5102222 14.5697778,14.9688889 14.0288889,14.9702222 L2.01333333,14.9702222 C1.47022222,14.9688889 1.01244444,14.5155556 1.012,13.9688889 L1.012,1.94888889 C1.01244444,1.39955556 1.46355556,0.948444444 2.01333333,0.947555556 L14.0288889,0.947555556 C14.5755556,0.948444444 15.0288889,1.40488889 15.0306667,1.94888889 L15.0306667,13.9688889 L15.0306667,13.9688889 Z M2.15422222,2.58088889 L2.15422222,13.8253333 L13.8871111,13.8253333 L13.8871111,2.092 L2.15422222,2.092 L2.15422222,2.58088889 L2.15422222,2.58088889 Z M3.13244444,3.06977778 L12.9093333,3.06977778 L12.9093333,12.8475556 L3.13155556,12.8475556 L3.13244444,3.06977778 L3.13244444,3.06977778 Z M6.75822222,5.29777778 C5.31866667,5.29911111 4.14977778,6.46711111 4.14844444,7.90666667 C4.14977778,9.34622222 5.31866667,10.5151111 6.75822222,10.5164444 C8.19777778,10.5151111 9.36622222,9.34622222 9.36755556,7.90666667 C9.36622222,6.46711111 8.19777778,5.29911111 6.75822222,5.29777778 L6.75822222,5.29777778 Z M6.75822222,9.53911111 C5.86222222,9.53688889 5.128,8.804 5.12622222,7.90666667 C5.12844444,7.01066667 5.86177778,6.27644444 6.75822222,6.27511111 C7.65511111,6.27644444 8.38844444,7.01022222 8.38977778,7.90666667 C8.38844444,8.804 7.65466667,9.53688889 6.75822222,9.53911111 L6.75822222,9.53911111 Z M10.9933333,7.03644444 L11.9711111,7.03644444 L11.9711111,4.29555556 L10.9933333,4.29555556 L10.9933333,7.03644444 L10.9933333,7.03644444 Z M10.9933333,11.6342222 L11.9711111,11.6342222 L11.9711111,8.89333333 L10.9933333,8.89333333 L10.9933333,11.6342222 L10.9933333,11.6342222 Z" id="Shape"></path>
                </g>
                <g id="Oval-57-+-sign_euro-6-+-tax_percent_2" transform="translate(946.500000, 362.500000)" sketch:type="MSShapeGroup">
                    <g id="Oval-57-+-sign_euro-6" stroke="#EFEFEF" filter="url(#filter-5)" fill="#FFFFFF">
                        <circle id="Oval-57" cx="46" cy="46" r="46"></circle>
                    </g>
                    <g id="tax_percent_2" transform="translate(21.954545, 23.000000)" fill="#F5CECE">
                        <path d="M32.9893182,28.7748295 C32.4260795,28.2128977 31.5165341,28.2128977 30.9546023,28.7748295 L22.7686932,36.9607386 C22.209375,37.5213636 22.2067614,38.4309091 22.7686932,38.9928409 C23.0496591,39.2738068 23.4181818,39.4149432 23.7853977,39.4149432 C24.1539205,39.4149432 24.5224432,39.2738068 24.8021023,38.9928409 L32.9880114,30.8069318 C33.5486364,30.2476136 33.55125,29.3367614 32.9893182,28.7748295 L32.9893182,28.7748295 Z M23.2901136,33.2519886 C24.2976705,33.2519886 25.3182955,32.8625568 26.0880114,32.0928409 C26.8564205,31.3218182 27.2510795,30.2985795 27.2484659,29.2884091 C27.2497727,28.2782386 26.8590341,27.255 26.0880114,26.4839773 C25.3182955,25.7129545 24.29375,25.3209091 23.2835795,25.3222159 C22.2747159,25.3196023 21.2501705,25.7116477 20.4817614,26.4813636 L20.4804545,26.4826705 L20.4791477,26.4826705 C19.708125,27.2523864 19.3186932,28.275625 19.3186932,29.2857955 C19.3160795,30.2933523 19.708125,31.3178977 20.4817614,32.0915341 C21.24625,32.8625568 22.2707955,33.2519886 23.2822727,33.2506818 C23.2848864,33.2519886 23.2861932,33.2519886 23.2901136,33.2519886 L23.2901136,33.2519886 Z M22.1936932,29.2871023 C22.1963068,29.0022159 22.2982386,28.7317045 22.51125,28.52 L21.4971591,27.5019886 L22.5138636,28.5186932 C22.7294886,28.3030682 23,28.1998295 23.2835795,28.1985227 C23.5671591,28.1998295 23.8376705,28.3030682 24.0546023,28.5186932 C24.2702273,28.7343182 24.3721591,29.0048295 24.3721591,29.2897159 C24.3721591,29.5706818 24.2702273,29.8425 24.0506818,30.0607386 C23.8376705,30.2750568 23.5658523,30.3769886 23.2796591,30.3796023 C22.9947727,30.3769886 22.7242614,30.2724432 22.5151705,30.0633523 C22.2995455,29.8425 22.1963068,29.5746023 22.1936932,29.2871023 L22.1936932,29.2871023 Z M32.4561364,34.4960795 C31.4459659,34.4960795 30.4227273,34.8855114 29.655625,35.6565341 C29.655625,35.6565341 29.655625,35.6565341 29.6543182,35.6578409 C29.6543182,35.6578409 29.6543182,35.6591477 29.6530114,35.6591477 C28.8806818,36.4288636 28.49125,37.4534091 28.49125,38.4622727 C28.4899432,39.4698295 28.879375,40.4956818 29.6530114,41.2667045 C30.4188068,42.0390341 31.4420455,42.4284659 32.4535227,42.4271591 L32.4613636,42.4271591 C33.4689205,42.4271591 34.4895455,42.0364205 35.2579545,41.2667045 C36.0276705,40.494375 36.4210227,39.4724432 36.4210227,38.4622727 C36.4210227,37.4534091 36.0302841,36.4288636 35.2605682,35.6591477 C34.4895455,34.8855114 33.465,34.4934659 32.4561364,34.4960795 L32.4561364,34.4960795 Z M33.2271591,39.2332955 C33.0128409,39.4476136 32.7397159,39.5508523 32.4548295,39.5521591 C32.1699432,39.5508523 31.8994318,39.445 31.6890341,39.2346023 C31.4707955,39.0163636 31.3701705,38.7458523 31.3675568,38.4609659 C31.3675568,38.1760795 31.4707955,37.9055682 31.6851136,37.6925568 L30.6697159,36.6758523 L31.6864205,37.69125 C31.9020455,37.475625 32.1725568,37.3723864 32.4561364,37.3723864 C32.7397159,37.375 33.0102273,37.475625 33.2271591,37.69125 C33.4427841,37.9081818 33.5460227,38.1786932 33.5460227,38.4609659 C33.5460227,38.7445455 33.4427841,39.0150568 33.2271591,39.2332955 L33.2271591,39.2332955 Z M43.1498295,20.9992614 C42.7969886,9.41039773 33.3134091,0.117613636 21.6382955,0.116306818 C9.74232955,0.118920455 0.0967045455,9.76193182 0.0967045455,21.6592045 C0.0967045455,28.8911364 3.66693182,35.290625 9.13465909,39.1953977 L9.13465909,41.4091477 C9.13988636,44.5638068 11.6973295,47.1225568 14.8532955,47.1264773 L40.9844318,47.1264773 C44.1390909,47.1225568 46.6978409,44.5638068 46.7030682,41.4091477 L46.7030682,26.2866477 C46.6978409,23.8990909 45.2315909,21.8552273 43.1498295,20.9992614 L43.1498295,20.9992614 Z M40.2513068,20.5693182 L23.7997727,20.5693182 L31.2982955,5.71863636 C36.3922727,8.81448864 39.87625,14.2639205 40.2513068,20.5693182 L40.2513068,20.5693182 Z M9.13465909,26.2866477 L9.13465909,35.5088636 C5.35142045,32.0902273 2.97039773,27.1569886 2.97039773,21.6592045 C2.98869318,11.3523295 11.3314205,3.00960227 21.6382955,2.99130682 C24.1539205,2.99522727 26.550625,3.50357955 28.7395455,4.40659091 L20.5784659,20.5693182 L14.8519886,20.5693182 C11.6986364,20.5732386 9.13988636,23.1346023 9.13465909,26.2866477 L9.13465909,26.2866477 Z M43.8280682,41.4091477 C43.8241477,42.9642614 42.5382386,44.2488636 40.9844318,44.2527841 L14.8532955,44.2527841 C13.296875,44.2488636 12.0135795,42.9629545 12.0096591,41.4091477 L12.0096591,26.2866477 C12.0135795,24.7328409 13.296875,23.4469318 14.8532955,23.4430114 L40.9844318,23.4430114 C42.5382386,23.4469318 43.8241477,24.7328409 43.8280682,26.2866477 L43.8280682,41.4091477 L43.8280682,41.4091477 Z" id="Shape"></path>
                    </g>
                </g>
                <g id="sign_pound_sterling" transform="translate(977.500000, 240.000000)" fill="#D3C8F0" sketch:type="MSShapeGroup">
                    <path d="M7.27831579,9.4182 C6.68252632,9.87316 6.27831579,9.98888 5.96547368,9.9902 C5.60547368,9.99152 5.28084211,9.82432 4.87073684,9.59156 C4.46736842,9.36848 3.97978947,9.08028 3.33557895,9.07808 C2.87957895,9.07808 2.39242105,9.22724 1.85136842,9.56956 C2.04842105,9.24176 2.27452632,8.8726 2.48,8.50256 C2.78231579,7.94508 3.05473684,7.4118 3.11031579,6.86488 C3.12589474,6.66952 3.13389474,6.49044 3.13389474,6.32368 C3.13431579,6.27836 3.13136842,6.23744 3.13052632,6.19388 L4.86863158,6.19388 L4.86863158,5.22544 L2.99494737,5.22544 C2.91915789,4.94956 2.82442105,4.71812 2.73852632,4.51396 C2.56168421,4.07792 2.41642105,3.73692 2.39957895,2.9634 C2.39915789,2.94668 2.39915789,2.94228 2.39915789,2.92292 C2.40168421,2.3474 2.58189474,1.90652 2.90905263,1.58664 C3.23747368,1.26852 3.74357895,1.05424 4.46357895,1.05292 C5.56589474,1.0538 6.23831579,1.72348 6.31115789,2.30076 C6.31831579,2.35664 6.32589474,2.42572 6.32589474,2.50228 C6.32126316,2.72536 6.28042105,2.992 6.00421053,3.28152 L6.65347368,3.97144 C7.136,3.47952 7.25642105,2.89432 7.25221053,2.50228 C7.25221053,2.36192 7.23873684,2.24356 7.22694737,2.1582 C7.04421053,0.9768 5.91410526,0.08448 4.46357895,0.08536 C3.56842105,0.08404 2.81052632,0.3608 2.27915789,0.87692 C1.74652632,1.39084 1.47031579,2.12696 1.47284211,2.92248 C1.47284211,2.93524 1.47284211,2.95944 1.47410526,2.99508 C1.48252632,3.88916 1.70484211,4.45984 1.88842105,4.8972 C1.93557895,5.01336 1.97936842,5.11984 2.01894737,5.22544 L0.0210526316,5.22544 L0.0210526316,6.19388 L2.20378947,6.19388 C2.20547368,6.237 2.208,6.27748 2.208,6.32368 C2.208,6.45964 2.20210526,6.611 2.18778947,6.78128 C2.17768421,7.1016 1.76926316,7.90548 1.34063158,8.602 C1.12842105,8.95752 0.914526316,9.3016 0.747368421,9.60344 C0.585263158,9.92288 0.443368421,10.12352 0.421473684,10.4918 C0.419789474,10.60532 0.452210526,10.78748 0.590315789,10.92916 C0.725473684,11.06644 0.891368421,11.09944 1.00294737,11.09944 L1.01010526,11.09944 C1.24589474,11.09196 1.41136842,11.01584 1.64884211,10.9032 L1.70105263,10.87724 L1.74442105,10.8394 C2.48884211,10.20184 2.97684211,10.04652 3.33642105,10.04564 C3.69810526,10.04344 4.024,10.21152 4.43368421,10.44384 C4.83621053,10.66736 5.32294737,10.95512 5.96631579,10.95732 C6.52378947,10.95864 7.13557895,10.73072 7.82736842,10.19788 L7.27831579,9.4182 L7.27831579,9.4182 Z" id="Shape"></path>
                </g>
                <g id="Oval-60-+-sign_dollar-5-+-sign_dollar" transform="translate(1782.500000, 254.500000)" sketch:type="MSShapeGroup">
                    <g id="Oval-60-+-sign_dollar-5" transform="translate(50.500000, 50.500000) scale(-1, 1) translate(-50.500000, -50.500000) " stroke="#EFEFEF" filter="url(#filter-6)" fill="#FFFFFF">
                        <circle id="Oval-60" cx="50.5" cy="50.5" r="50.5"></circle>
                    </g>
                    <g id="sign_dollar" transform="translate(33.366071, 19.839286)" fill="#C8E5F0">
                        <path d="M26.7036004,12.744229 C29.0085609,14.4510839 30.1921892,16.5592978 30.1921892,18.7300893 L34.9159618,18.7300893 C34.9159618,14.7294458 32.6947791,11.2510006 29.4940418,8.91405517 C26.8324892,6.96336384 23.4470114,5.70102487 19.7156821,5.31908642 L19.7156821,-0.138102041 L14.9876132,-0.138102041 L14.9876132,5.31692857 C11.2541358,5.69886703 7.86865806,6.96120599 5.20495727,8.91189732 C2.00636818,11.2488428 -0.216962726,14.7272879 -0.216962726,18.7279314 C-0.309332995,23.6845 2.34362707,27.2837844 5.73984558,29.0877423 C8.53458326,30.6306011 11.7825797,31.4203721 14.9854651,32.0590941 L14.9854651,49.9433084 C12.2229496,49.5829483 9.78480412,48.6119184 7.99325052,47.2891598 C5.69043822,45.5823048 4.50680989,43.471933 4.50680989,41.3032994 L-0.219110872,41.3032994 C-0.219110872,45.3039429 2.00422003,48.7867038 5.20280913,51.1193335 C7.86436177,53.0700249 11.2519877,54.3323638 14.9854651,54.7143023 L14.9854651,60.4196429 L19.713534,60.4196429 L19.713534,54.7143023 C23.4448633,54.3323638 26.830341,53.0700249 29.4918937,51.1193335 C32.6904828,48.7823881 34.9138137,45.3039429 34.9138137,41.3032994 C35.0061839,36.3942034 32.3338906,32.8337602 28.9419684,31.0643278 C26.151527,29.5538367 22.909975,28.7791706 19.713534,28.1447643 L19.713534,10.0879225 C22.4781976,10.4525982 24.9163431,11.4236282 26.7036004,12.744229 L26.7036004,12.744229 Z M22.3321237,33.599795 C24.8518988,34.2579375 26.9141187,35.1340223 28.1815247,36.2798377 C29.4317456,37.440758 30.1535226,38.7333068 30.1921892,41.3032994 C30.1921892,43.471933 29.0085609,45.580147 26.7036004,47.2891598 C24.9184913,48.6119184 22.4781976,49.5851062 19.7178303,49.9433084 L19.7178303,32.989125 C20.6157552,33.1768575 21.4986432,33.3710635 22.3321237,33.599795 L22.3321237,33.599795 Z M12.3776161,26.5954321 C9.86428551,25.930816 7.80850998,25.0417841 6.53680767,23.8722325 C5.28229052,22.6897337 4.54762466,21.3518702 4.51110618,18.7279314 C4.51110618,16.5592978 5.69473451,14.4532417 7.99754681,12.7420711 C9.78910041,11.4214703 12.2250977,10.4504404 14.9897614,10.0879225 L14.9897614,27.2125756 C14.0896883,27.0226853 13.2089485,26.8263214 12.3776161,26.5954321 L12.3776161,26.5954321 Z" id="Shape"></path>
                    </g>
                </g>
            </g>
        </g>
    </g>
</svg>